<svg width="25" height="25" viewBox="0 0 25 25" fill="none" xmlns="http://www.w3.org/2000/svg">
<path d="M12.5 2.73999C10.5716 2.73999 8.68657 3.31182 7.08319 4.38316C5.47982 5.45451 4.23013 6.97725 3.49218 8.75883C2.75422 10.5404 2.56114 12.5008 2.93735 14.3921C3.31355 16.2834 4.24215 18.0207 5.60571 19.3843C6.96928 20.7478 8.70656 21.6764 10.5979 22.0526C12.4892 22.4289 14.4496 22.2358 16.2312 21.4978C18.0127 20.7599 19.5355 19.5102 20.6068 17.9068C21.6782 16.3034 22.25 14.4184 22.25 12.49C22.247 9.90505 21.2188 7.42683 19.391 5.599C17.5632 3.77117 15.0849 2.74298 12.5 2.73999ZM17.1436 10.7827L11.6431 16.0327C11.5032 16.1658 11.3176 16.24 11.1245 16.24C10.9315 16.24 10.7458 16.1658 10.606 16.0327L7.85645 13.4077C7.7128 13.2701 7.62965 13.0811 7.62524 12.8823C7.62084 12.6834 7.69555 12.4909 7.83297 12.3471C7.97038 12.2033 8.15927 12.1199 8.35813 12.1152C8.55699 12.1106 8.74956 12.185 8.89356 12.3223L11.1245 14.4529L16.1064 9.69727C16.2504 9.56003 16.443 9.48557 16.6419 9.49022C16.8407 9.49488 17.0296 9.57827 17.167 9.72209C17.3045 9.86591 17.3792 10.0584 17.3748 10.2573C17.3704 10.4561 17.2872 10.6451 17.1436 10.7827Z" fill="white"/>
</svg>
