<svg width="24" height="24" viewBox="0 0 24 24" fill="none" xmlns="http://www.w3.org/2000/svg">
<path d="M12 0.625C9.75024 0.625 7.551 1.29213 5.68039 2.54203C3.80978 3.79193 2.35182 5.56847 1.49088 7.64698C0.629929 9.72548 0.404666 12.0126 0.843573 14.2192C1.28248 16.4257 2.36584 18.4525 3.95667 20.0433C5.54749 21.6342 7.57432 22.7175 9.78085 23.1564C11.9874 23.5953 14.2745 23.3701 16.353 22.5091C18.4315 21.6482 20.2081 20.1902 21.458 18.3196C22.7079 16.449 23.375 14.2498 23.375 12C23.3715 8.98423 22.172 6.09298 20.0395 3.96051C17.907 1.82804 15.0158 0.628486 12 0.625ZM16.1187 14.8813C16.2 14.9626 16.2646 15.059 16.3087 15.1652C16.3528 15.2714 16.3755 15.3852 16.3756 15.5002C16.3756 15.6152 16.353 15.729 16.3091 15.8353C16.2651 15.9415 16.2006 16.038 16.1193 16.1193C16.038 16.2006 15.9415 16.2651 15.8353 16.3091C15.729 16.353 15.6152 16.3756 15.5002 16.3756C15.3852 16.3755 15.2714 16.3528 15.1652 16.3087C15.059 16.2646 14.9626 16.2 14.8814 16.1187L12 13.2373L9.11866 16.1187C8.95452 16.2824 8.73208 16.3744 8.5002 16.3742C8.26832 16.3741 8.04597 16.282 7.88201 16.118C7.71805 15.954 7.62588 15.7317 7.62576 15.4998C7.62563 15.2679 7.71756 15.0455 7.88135 14.8813L10.7627 12L7.88135 9.11865C7.71756 8.95452 7.62563 8.73207 7.62576 8.50019C7.62588 8.26831 7.71805 8.04597 7.88201 7.88201C8.04597 7.71804 8.26832 7.62588 8.5002 7.62575C8.73208 7.62563 8.95452 7.71756 9.11866 7.88135L12 10.7627L14.8814 7.88135C15.0455 7.71756 15.2679 7.62563 15.4998 7.62575C15.7317 7.62588 15.954 7.71804 16.118 7.88201C16.282 8.04597 16.3741 8.26831 16.3743 8.50019C16.3744 8.73207 16.2824 8.95452 16.1187 9.11865L13.2373 12L16.1187 14.8813Z" fill="#ADB5BD"/>
</svg>
