<svg width="28" height="28" viewBox="0 0 28 28" fill="none" xmlns="http://www.w3.org/2000/svg">
<path d="M14 2.625C11.7502 2.625 9.551 3.29213 7.68039 4.54203C5.80978 5.79193 4.35182 7.56847 3.49088 9.64698C2.62993 11.7255 2.40467 14.0126 2.84357 16.2192C3.28248 18.4257 4.36584 20.4525 5.95667 22.0433C7.54749 23.6342 9.57432 24.7175 11.7809 25.1564C13.9874 25.5953 16.2745 25.3701 18.353 24.5091C20.4315 23.6482 22.2081 22.1902 23.458 20.3196C24.7079 18.449 25.375 16.2498 25.375 14C25.3715 10.9842 24.172 8.09298 22.0395 5.96051C19.907 3.82804 17.0158 2.62849 14 2.625ZM18.1187 16.8813C18.2 16.9626 18.2646 17.059 18.3087 17.1652C18.3528 17.2714 18.3755 17.3852 18.3756 17.5002C18.3756 17.6152 18.353 17.729 18.3091 17.8353C18.2651 17.9415 18.2006 18.038 18.1193 18.1193C18.038 18.2006 17.9415 18.2651 17.8353 18.3091C17.729 18.353 17.6152 18.3756 17.5002 18.3756C17.3852 18.3755 17.2714 18.3528 17.1652 18.3087C17.059 18.2646 16.9626 18.2 16.8814 18.1187L14 15.2373L11.1187 18.1187C10.9545 18.2824 10.7321 18.3744 10.5002 18.3742C10.2683 18.3741 10.046 18.282 9.88201 18.118C9.71805 17.954 9.62588 17.7317 9.62576 17.4998C9.62563 17.2679 9.71756 17.0455 9.88135 16.8813L12.7627 14L9.88135 11.1187C9.71756 10.9545 9.62563 10.7321 9.62576 10.5002C9.62588 10.2683 9.71805 10.046 9.88201 9.88201C10.046 9.71804 10.2683 9.62588 10.5002 9.62575C10.7321 9.62563 10.9545 9.71756 11.1187 9.88135L14 12.7627L16.8814 9.88135C17.0455 9.71756 17.2679 9.62563 17.4998 9.62575C17.7317 9.62588 17.954 9.71804 18.118 9.88201C18.282 10.046 18.3741 10.2683 18.3743 10.5002C18.3744 10.7321 18.2824 10.9545 18.1187 11.1187L15.2373 14L18.1187 16.8813Z" fill="#ADB5BD"/>
</svg>
