<svg width="50" height="51" viewBox="0 0 50 51" fill="none" xmlns="http://www.w3.org/2000/svg">
<path d="M45 25.5776C45 14.5319 36.0457 5.57764 25 5.57764C13.9543 5.57764 5 14.5319 5 25.5776C5 35.5601 12.3137 43.8343 21.875 45.3347V31.3589H16.7969V25.5776H21.875V21.1714C21.875 16.1589 24.8609 13.3901 29.4293 13.3901C31.6176 13.3901 33.9062 13.7808 33.9062 13.7808V18.7026H31.3844C28.9 18.7026 28.125 20.2444 28.125 21.8261V25.5776H33.6719L32.7852 31.3589H28.125V45.3347C37.6863 43.8343 45 35.5601 45 25.5776Z" fill="#1877F2"/>
<path d="M32.7852 31.3589L33.6719 25.5776H28.125V21.8261C28.125 20.2444 28.9 18.7026 31.3844 18.7026H33.9062V13.7808C33.9062 13.7808 31.6176 13.3901 29.4293 13.3901C24.8609 13.3901 21.875 16.1589 21.875 21.1714V25.5776H16.7969V31.3589H21.875V45.3347C22.8934 45.4944 23.9367 45.5776 25 45.5776C26.0633 45.5776 27.1066 45.4944 28.125 45.3347V31.3589H32.7852Z" fill="white"/>
</svg>
