<svg width="41" height="40" viewBox="0 0 41 40" fill="none" xmlns="http://www.w3.org/2000/svg">
<path d="M19.8321 7.60921C19.8821 7.8417 19.9367 8.09578 20.0058 8.36733C20.335 9.66069 21.2686 10.3493 22.3661 11.066L22.4245 11.1042L22.4707 11.1557C22.6059 11.3065 22.7295 11.4422 22.8429 11.5666L22.8429 11.5666C23.1689 11.9244 23.4106 12.1895 23.6003 12.4572C23.8754 12.8455 24.0494 13.2434 24.2917 13.9255C24.4731 14.4359 24.6517 15.0868 24.8316 15.7426C24.896 15.9774 24.9606 16.2128 25.0256 16.4427C25.2786 17.3379 25.5372 18.1497 25.8262 18.676C26.1209 19.1358 26.4388 19.5645 26.7626 20.0013C27.7826 21.377 28.862 22.833 29.4674 25.5912C29.8069 27.0415 29.5838 28.96 28.4423 30.5664C27.2856 32.1943 25.2257 33.4472 22.0063 33.6127C18.0283 33.9041 15.1846 33.0576 13.356 31.55C11.5217 30.0377 10.7808 27.9185 10.8994 25.8235C11.0191 23.7103 11.9543 22.2545 13.0808 20.9559C13.4395 20.5424 13.8309 20.1306 14.2195 19.7217C14.4269 19.5035 14.6335 19.2861 14.8339 19.0697C15.4215 18.4354 15.9881 17.7774 16.4825 17.027L16.4861 17.0216C17.3792 15.7028 17.5771 14.6238 17.5334 13.6832C17.5111 13.2029 17.4251 12.747 17.3213 12.2921C17.291 12.1592 17.2581 12.0226 17.2249 11.8845L17.2249 11.8845L17.2249 11.8845C17.1485 11.5669 17.0701 11.2411 17.0156 10.9314L17.0145 10.9247C16.811 9.66968 17.3317 8.8857 17.7608 8.23953C17.8413 8.11841 17.9185 8.00213 17.9872 7.8885C18.1387 7.37536 18.2651 7.00527 18.3812 6.78079C18.4131 6.71908 18.4524 6.65205 18.5013 6.5903C18.5451 6.5348 18.6278 6.44324 18.7589 6.38433C18.9192 6.3123 19.1095 6.30928 19.2792 6.39369C19.4176 6.46247 19.496 6.56669 19.5338 6.62424C19.6099 6.74041 19.6554 6.88073 19.6852 6.98344C19.7188 7.09946 19.7506 7.23556 19.7818 7.37683C19.7982 7.45149 19.8149 7.52887 19.8321 7.6088L19.8321 7.60921Z" fill="#F8F9FA"/>
<path d="M18.4998 8.25028C18.0109 9.08761 17.3605 9.69206 17.5685 10.9761C17.8674 12.6729 18.856 14.5783 16.9659 17.3703C14.9176 20.4783 11.7409 21.9556 11.5216 25.8303C11.3022 29.7049 14.2544 33.5685 21.9545 33.0023C28.054 32.6916 29.4728 28.2996 28.8579 25.6823C28.0919 22.1903 26.5884 20.9796 25.3117 18.9836C24.6684 17.8245 24.2241 15.5232 23.7513 14.1925C23.2786 12.8614 23.1364 12.8325 22.0493 11.6196C20.9616 10.9098 19.874 10.1334 19.496 8.64717C19.118 7.16095 19.1383 6.06806 18.4998 8.25028Z" fill="#E56F53"/>
<path d="M20.4504 20.3729C20.4504 20.3729 20.2074 21.3969 19.1529 23.3C18.2879 24.8058 17.9208 25.5556 17.4864 27.0116C17.0449 29.2809 19.1169 30.4476 19.8289 30.9356C20.3807 31.3125 20.8829 30.7551 21.6489 29.8965C22.0785 29.4205 22.3855 29.1845 22.7929 28.6449C23.1894 27.9236 23.1842 26.7045 22.6669 25.1769C22.1444 23.6391 21.2974 22.9818 20.9194 22.112C20.5868 21.3307 20.4504 20.3729 20.4504 20.3729Z" fill="#FFD569"/>
</svg>
