<svg width="24" height="20" viewBox="0 0 24 20" fill="none" xmlns="http://www.w3.org/2000/svg">
<path d="M16.3751 6.93752V6.93789C16.3751 7.28602 16.2367 7.61988 15.9905 7.86602C15.7443 8.11216 15.4105 8.25042 15.0623 8.2504C14.7142 8.25037 14.3803 8.11206 14.1342 7.86588C13.888 7.61971 13.7497 7.28584 13.7497 6.93771C13.7497 6.58957 13.888 6.2557 14.1342 6.00952C14.3803 5.76335 14.7142 5.62504 15.0623 5.62501C15.4105 5.62499 15.7443 5.76325 15.9905 6.00939C16.2367 6.25553 16.3751 6.58939 16.3751 6.93752ZM23.375 2.125V17.875C23.3745 18.339 23.1899 18.7838 22.8619 19.1119C22.5338 19.4399 22.089 19.6245 21.625 19.625H2.375C1.91103 19.6245 1.46622 19.4399 1.13815 19.1119C0.810076 18.7838 0.625531 18.339 0.625 17.875V2.125C0.625531 1.66103 0.810076 1.21622 1.13815 0.88815C1.46622 0.560076 1.91103 0.375531 2.375 0.375H21.625C22.089 0.375531 22.5338 0.560076 22.8619 0.88815C23.1899 1.21622 23.3745 1.66103 23.375 2.125ZM21.6259 14.0134L21.625 2.125H2.375V12.2625L6.38759 8.25002C6.71605 7.92232 7.16108 7.73829 7.62505 7.73829C8.08903 7.73829 8.53406 7.92232 8.86252 8.25002L13.7501 13.1376L16.0126 10.875C16.341 10.5473 16.7861 10.3633 17.2501 10.3633C17.714 10.3633 18.1591 10.5473 18.4875 10.875L21.6259 14.0134Z" fill="white"/>
</svg>
