<svg width="51" height="51" viewBox="0 0 51 51" fill="none" xmlns="http://www.w3.org/2000/svg">
<path d="M25.5 45.5002C36.5457 45.5002 45.5 36.5459 45.5 25.5002C45.5 14.4545 36.5457 5.50024 25.5 5.50024C14.4543 5.50024 5.5 14.4545 5.5 25.5002C5.5 36.5459 14.4543 45.5002 25.5 45.5002Z" fill="#F9E000"/>
<path d="M23.0217 23.2664L22.2657 25.442H23.8019L23.0459 23.2692C23.0374 23.2678 23.0303 23.2664 23.0217 23.2664Z" fill="#3C1E1E"/>
<path d="M25.5 15.4036C19.1734 15.4036 14.0463 19.4806 14.0463 24.5098C14.0463 27.6276 16.0159 30.3773 19.02 32.0201L18.1915 36.4595C18.1503 36.6797 18.3947 36.8417 18.5823 36.7181L23.502 33.4767C23.502 33.4767 24.8179 33.6145 25.4986 33.6145C31.8237 33.6145 36.9523 29.5375 36.9523 24.5084C36.9538 19.4806 31.8251 15.4036 25.5 15.4036ZM19.8485 27.089C19.8485 27.2339 19.7902 27.3761 19.6865 27.4798C19.5856 27.5821 19.4449 27.6404 19.3013 27.6404H19.182C19.037 27.6404 18.8963 27.5821 18.7954 27.4784C18.6917 27.3746 18.6334 27.2325 18.6334 27.089V23.1043H17.5605C17.2508 23.1043 16.9992 22.8514 16.9992 22.5388C16.9992 22.2261 17.2508 21.9732 17.5605 21.9732H20.8617C21.1715 21.9732 21.423 22.2261 21.423 22.5388C21.423 22.8514 21.1715 23.1043 20.8617 23.1043H19.8485V27.089ZM25.1348 27.6105C24.8506 27.7114 24.5394 27.5608 24.4385 27.2737L24.1585 26.4694H21.9076L21.6276 27.2737C21.5281 27.5608 21.2155 27.7114 20.9313 27.6105C20.6471 27.5096 20.4979 27.197 20.5974 26.9099C20.6002 26.9028 20.6016 26.8972 20.6045 26.8915C20.6087 26.8801 20.613 26.8673 20.6172 26.8559C20.6244 26.8389 20.63 26.8204 20.6371 26.8034C20.6457 26.7806 20.6542 26.7565 20.6627 26.7337C20.6727 26.7053 20.684 26.6769 20.694 26.6485C20.7068 26.6158 20.7181 26.5831 20.7309 26.5504C20.7451 26.5135 20.7579 26.4765 20.7721 26.4382C20.7878 26.3969 20.802 26.3557 20.8176 26.3145C20.8347 26.269 20.8503 26.225 20.8674 26.1795C20.8844 26.1312 20.9029 26.0829 20.9199 26.036C20.9384 25.9848 20.9569 25.9337 20.9768 25.8839C20.9967 25.8299 21.0166 25.7774 21.0365 25.7234C21.0564 25.6679 21.0777 25.6125 21.0976 25.5571C21.1189 25.5003 21.1402 25.4434 21.1615 25.3851C21.1828 25.3269 21.2041 25.2686 21.2269 25.2089C21.2496 25.1493 21.2709 25.0896 21.2937 25.0299C21.3164 24.9702 21.3377 24.9091 21.3605 24.8494C21.3832 24.7883 21.4045 24.7286 21.4273 24.6675C21.45 24.6078 21.4713 24.5467 21.494 24.487C21.5168 24.4274 21.5381 24.3677 21.5608 24.308C21.5821 24.2497 21.6049 24.19 21.6262 24.1304C21.6475 24.0721 21.6688 24.0152 21.6901 23.957C21.7115 23.9001 21.7314 23.8447 21.7527 23.7879C21.7726 23.7339 21.7925 23.6799 21.8124 23.6259C21.8323 23.5733 21.8507 23.5221 21.8706 23.4696C21.8891 23.4198 21.9076 23.3715 21.9246 23.3218C21.9417 23.2763 21.9587 23.2294 21.9758 23.1839C21.9914 23.1413 22.007 23.0987 22.0227 23.056C22.0369 23.0177 22.0511 22.9779 22.0653 22.9395C22.0781 22.9054 22.0909 22.8699 22.1037 22.8358C22.115 22.8059 22.1264 22.7761 22.1378 22.7448C22.1477 22.7192 22.1563 22.6937 22.1662 22.6695C22.1932 22.5985 22.2728 22.3668 22.2941 22.3242C22.3168 22.2759 22.3453 22.2318 22.3779 22.1906C22.4277 22.1295 22.4888 22.0755 22.5556 22.0329C22.6266 21.9874 22.7034 21.9519 22.7844 21.9291C22.8696 21.9036 22.9592 21.8922 23.0487 21.8922C23.411 21.8922 23.7137 22.0926 23.8189 22.3697C23.8203 22.3711 23.8246 22.3739 23.8246 22.3739L25.4702 26.9085C25.5696 27.1956 25.419 27.5096 25.1348 27.6105ZM28.5866 27.6034H26.3441C26.0627 27.6034 25.834 27.3732 25.834 27.089C25.834 27.0549 25.834 26.9256 25.834 26.8929V22.5061C25.834 22.1664 26.1068 21.8922 26.4436 21.8922C26.7804 21.8922 27.0532 22.1664 27.0532 22.5061V26.576H28.5866C28.8693 26.576 29.0967 26.8062 29.0967 27.089C29.0967 27.3732 28.8693 27.6034 28.5866 27.6034ZM33.4039 27.531C33.1638 27.7143 32.8213 27.6645 32.6408 27.4215L31.0222 25.2814L30.6741 25.6324V27.0279C30.6741 27.3675 30.4012 27.6432 30.0645 27.6432C29.7277 27.6432 29.4548 27.3675 29.4548 27.0279V22.5061C29.4548 22.1664 29.7277 21.8922 30.0645 21.8922C30.4012 21.8922 30.6741 22.1664 30.6741 22.5061V24.1048L32.5883 22.1764C32.7971 21.9661 33.1368 21.9661 33.3471 22.1764C33.556 22.3867 33.556 22.7292 33.3471 22.9395L31.801 24.497L33.5119 26.7607C33.6938 27.0052 33.6455 27.3491 33.4039 27.531Z" fill="#3C1E1E"/>
</svg>
