<svg width="12" height="12" viewBox="0 0 12 12" fill="none" xmlns="http://www.w3.org/2000/svg">
<path d="M2.12947 8.29693C1.57038 7.35443 1.37458 6.24024 1.57884 5.1636C1.7831 4.08695 2.37338 3.1219 3.23882 2.44967C4.10426 1.77743 5.18534 1.44425 6.27906 1.51269C7.37277 1.58113 8.40388 2.04649 9.17876 2.82137C9.95365 3.59625 10.419 4.62736 10.4875 5.72107C10.5559 6.81479 10.2227 7.89587 9.5505 8.76132C8.87827 9.62676 7.91322 10.217 6.83658 10.4213C5.75993 10.6256 4.64575 10.4298 3.70324 9.87069L3.70325 9.87064L2.14904 10.3147C2.08474 10.3331 2.01669 10.3339 1.95195 10.3171C1.88721 10.3004 1.82814 10.2666 1.78085 10.2193C1.73356 10.172 1.69978 10.1129 1.68301 10.0482C1.66623 9.98346 1.66707 9.91541 1.68545 9.85111L2.12951 8.2969L2.12947 8.29693Z" stroke="#868E96" stroke-linecap="round" stroke-linejoin="round"/>
<path d="M4.5 5.25H7.5" stroke="#868E96" stroke-linecap="round" stroke-linejoin="round"/>
<path d="M4.5 6.75H7.5" stroke="#868E96" stroke-linecap="round" stroke-linejoin="round"/>
</svg>
