<svg width="12" height="12" viewBox="0 0 12 12" fill="none" xmlns="http://www.w3.org/2000/svg">
<path d="M4.125 7.5C5.47119 7.5 6.5625 6.40869 6.5625 5.0625C6.5625 3.71631 5.47119 2.625 4.125 2.625C2.77881 2.625 1.6875 3.71631 1.6875 5.0625C1.6875 6.40869 2.77881 7.5 4.125 7.5Z" stroke="#868E96" stroke-miterlimit="10"/>
<path d="M7.28516 2.71587C7.62042 2.62141 7.97203 2.59989 8.3163 2.65276C8.66058 2.70563 8.98953 2.83167 9.28099 3.02237C9.57246 3.21308 9.81967 3.46403 10.006 3.75833C10.1923 4.05262 10.3134 4.38343 10.3611 4.72846C10.4088 5.07349 10.382 5.42473 10.2825 5.75854C10.183 6.09234 10.0132 6.40095 9.78437 6.66358C9.55557 6.92621 9.27315 7.13677 8.95613 7.28106C8.63912 7.42535 8.29486 7.50003 7.94654 7.50007" stroke="#868E96" stroke-linecap="round" stroke-linejoin="round"/>
<path d="M0.75 9.25297C1.13069 8.71147 1.63607 8.26951 2.22349 7.96441C2.81091 7.65931 3.46311 7.50003 4.12504 7.5C4.78696 7.49997 5.43918 7.65921 6.02662 7.96427C6.61406 8.26932 7.11948 8.71124 7.50021 9.25271" stroke="#868E96" stroke-linecap="round" stroke-linejoin="round"/>
<path d="M7.94629 7.5C8.60828 7.49952 9.26063 7.65856 9.84812 7.96366C10.4356 8.26875 10.9409 8.71092 11.3213 9.25271" stroke="#868E96" stroke-linecap="round" stroke-linejoin="round"/>
</svg>
