<svg width="20" height="21" viewBox="0 0 20 21" fill="none" xmlns="http://www.w3.org/2000/svg">
<path d="M3.54912 14.328C2.6173 12.7571 2.29097 10.9002 2.6314 9.10574C2.97184 7.31133 3.95563 5.70291 5.39803 4.58252C6.84044 3.46213 8.64224 2.90683 10.4651 3.0209C12.2879 3.13497 14.0065 3.91056 15.2979 5.20203C16.5894 6.4935 17.365 8.21201 17.4791 10.0349C17.5932 11.8577 17.0379 13.6595 15.9175 15.1019C14.7971 16.5443 13.1887 17.5281 11.3943 17.8686C9.59988 18.209 7.74291 17.8827 6.17207 16.9509L6.17209 16.9508L3.58173 17.6909C3.47456 17.7215 3.36115 17.7229 3.25325 17.695C3.14536 17.667 3.0469 17.6107 2.96809 17.5319C2.88927 17.4531 2.83297 17.3546 2.80501 17.2467C2.77705 17.1388 2.77846 17.0254 2.80908 16.9183L3.54918 14.3279L3.54912 14.328Z" stroke="#343A40" stroke-width="1.3" stroke-linecap="round" stroke-linejoin="round"/>
<path d="M7.5 9.25H12.5" stroke="#343A40" stroke-width="1.3" stroke-linecap="round" stroke-linejoin="round"/>
<path d="M7.5 11.75H12.5" stroke="#343A40" stroke-width="1.3" stroke-linecap="round" stroke-linejoin="round"/>
</svg>
