<svg width="24" height="25" viewBox="0 0 24 25" fill="none" xmlns="http://www.w3.org/2000/svg">
<path d="M12 2.75C10.0716 2.75 8.18657 3.32183 6.58319 4.39317C4.97982 5.46451 3.73013 6.98726 2.99218 8.76884C2.25422 10.5504 2.06114 12.5108 2.43735 14.4021C2.81355 16.2934 3.74215 18.0307 5.10571 19.3943C6.46928 20.7579 8.20656 21.6865 10.0979 22.0627C11.9892 22.4389 13.9496 22.2458 15.7312 21.5078C17.5127 20.7699 19.0355 19.5202 20.1068 17.9168C21.1782 16.3134 21.75 14.4284 21.75 12.5C21.747 9.91506 20.7188 7.43684 18.891 5.60901C17.0632 3.78118 14.5849 2.75299 12 2.75ZM16.6436 10.7927L11.1431 16.0427C11.0032 16.1758 10.8176 16.25 10.6245 16.25C10.4315 16.25 10.2458 16.1758 10.106 16.0427L7.35645 13.4177C7.2128 13.2801 7.12965 13.0911 7.12524 12.8923C7.12084 12.6934 7.19555 12.5009 7.33297 12.3571C7.47038 12.2133 7.65927 12.1299 7.85813 12.1252C8.05699 12.1206 8.24956 12.195 8.39356 12.3323L10.6245 14.4629L15.6064 9.70728C15.7504 9.57004 15.943 9.49558 16.1419 9.50023C16.3407 9.50489 16.5296 9.58828 16.667 9.7321C16.8045 9.87592 16.8792 10.0684 16.8748 10.2673C16.8704 10.4661 16.7872 10.6551 16.6436 10.7927Z" fill="white"/>
</svg>
