<svg width="21" height="20" viewBox="0 0 21 20" fill="none" xmlns="http://www.w3.org/2000/svg">
<path d="M2.64999 16.7388C2.81682 16.8101 3.00965 16.7739 3.14002 16.6472C5.36013 14.4862 8.27954 13.2515 11.4028 13.1428V16.32C11.4028 16.504 11.5128 16.67 11.6814 16.7404C11.7372 16.7637 11.7959 16.775 11.854 16.775C11.9714 16.775 12.0869 16.7288 12.1732 16.6418L18.4927 10.2718C18.6691 10.0941 18.6691 9.80604 18.4927 9.62841L12.1732 3.25841C12.0443 3.1281 11.8499 3.08915 11.6814 3.15977C11.5128 3.23002 11.4028 3.39601 11.4028 3.58001V6.77574C6.38461 7.0138 2.375 11.2038 2.375 16.32C2.375 16.5025 2.48333 16.6674 2.64999 16.7388ZM11.8542 7.67501C12.1035 7.67501 12.3056 7.47135 12.3056 7.22001V4.67856L17.5352 9.95L12.3056 15.2214V12.68C12.3056 12.4287 12.1035 12.225 11.8542 12.225C8.70457 12.225 5.72269 13.2915 3.34314 15.2491C3.86802 10.9856 7.48474 7.67501 11.8542 7.67501Z" fill="#343A40" stroke="#343A40" stroke-width="0.3"/>
</svg>
