<svg width="20" height="15" viewBox="0 0 20 15" fill="none" xmlns="http://www.w3.org/2000/svg">
<path fill-rule="evenodd" clip-rule="evenodd" d="M9.97358 14.2495L19.2414 7.62476L9.97358 1V5.27931C6.26315 5.15015 1 6.49346 1 12.7929C2.22638 11.2599 5.58099 8.82716 9.97358 10.0023V14.2495Z" fill="white"/>
<path d="M19.2414 7.62476L19.5321 8.03152C19.6635 7.93766 19.7414 7.78617 19.7414 7.62476C19.7414 7.46334 19.6635 7.31186 19.5321 7.21799L19.2414 7.62476ZM9.97358 14.2495H9.47358C9.47358 14.4368 9.57829 14.6085 9.74487 14.6941C9.91145 14.7798 10.1119 14.7652 10.2643 14.6563L9.97358 14.2495ZM9.97358 1L10.2643 0.593235C10.1119 0.484301 9.91145 0.469689 9.74487 0.555376C9.57829 0.641064 9.47358 0.812675 9.47358 1H9.97358ZM9.97358 5.27931L9.95619 5.77901C10.0917 5.78373 10.2234 5.73318 10.3209 5.63896C10.4185 5.54474 10.4736 5.41494 10.4736 5.27931H9.97358ZM1 12.7929H0.5C0.5 13.0052 0.634122 13.1944 0.834496 13.2647C1.03487 13.335 1.25778 13.2711 1.39043 13.1052L1 12.7929ZM9.97358 10.0023H10.4736C10.4736 9.77597 10.3215 9.57784 10.1028 9.51933L9.97358 10.0023ZM18.9506 7.21799L9.68282 13.8427L10.2643 14.6563L19.5321 8.03152L18.9506 7.21799ZM9.68282 1.40676L18.9506 8.03152L19.5321 7.21799L10.2643 0.593235L9.68282 1.40676ZM10.4736 5.27931V1H9.47358V5.27931H10.4736ZM1.5 12.7929C1.5 9.81032 2.73131 8.06285 4.3595 7.04993C6.02258 6.0153 8.15391 5.71627 9.95619 5.77901L9.99098 4.77961C8.08282 4.71319 5.72736 5.02124 3.83126 6.20083C1.90026 7.40213 0.5 9.47604 0.5 12.7929H1.5ZM10.1028 9.51933C5.45846 8.27679 1.91583 10.8477 0.609566 12.4805L1.39043 13.1052C2.53693 11.6721 5.70353 9.37752 9.84436 10.4854L10.1028 9.51933ZM10.4736 14.2495V10.0023H9.47358V14.2495H10.4736Z" fill="#606060"/>
</svg>
