<svg width="24" height="24" viewBox="0 0 24 24" fill="none" xmlns="http://www.w3.org/2000/svg">
<path d="M2.57998 20.0865C2.78018 20.1722 3.01159 20.1287 3.16802 19.9767C5.83216 17.3834 9.33545 15.9018 13.0834 15.7714V19.584C13.0834 19.8048 13.2153 20.004 13.4177 20.0885C13.4846 20.1165 13.555 20.13 13.6248 20.13C13.7656 20.13 13.9043 20.0745 14.0079 19.9701L21.5912 12.3261C21.8029 12.113 21.8029 11.7673 21.5912 11.5541L14.0079 3.9101C13.8532 3.75372 13.6198 3.70698 13.4177 3.79172C13.2153 3.87603 13.0834 4.07521 13.0834 4.29601V8.13089C7.06153 8.41656 2.25 13.4446 2.25 19.584C2.25 19.8031 2.38 20.0009 2.57998 20.0865ZM13.625 9.21001C13.9242 9.21001 14.1667 8.96562 14.1667 8.66401V5.61427L20.4423 11.94L14.1667 18.2657V15.216C14.1667 14.9144 13.9242 14.67 13.625 14.67C9.84549 14.67 6.26723 15.9498 3.41177 18.2989C4.04162 13.1827 8.38168 9.21001 13.625 9.21001Z" fill="#343A40" stroke="#343A40" stroke-width="0.4"/>
</svg>
