<svg width="25" height="25" viewBox="0 0 25 25" fill="none" xmlns="http://www.w3.org/2000/svg">
<path d="M12.5 13.615C13.1213 13.615 13.625 13.1113 13.625 12.49C13.625 11.8687 13.1213 11.365 12.5 11.365C11.8787 11.365 11.375 11.8687 11.375 12.49C11.375 13.1113 11.8787 13.615 12.5 13.615Z" fill="#343A40" stroke="#343A40"/>
<path d="M18.5 13.615C19.1213 13.615 19.625 13.1113 19.625 12.49C19.625 11.8687 19.1213 11.365 18.5 11.365C17.8787 11.365 17.375 11.8687 17.375 12.49C17.375 13.1113 17.8787 13.615 18.5 13.615Z" fill="#343A40" stroke="#343A40"/>
<path d="M6.5 13.615C7.12132 13.615 7.625 13.1113 7.625 12.49C7.625 11.8687 7.12132 11.365 6.5 11.365C5.87868 11.365 5.375 11.8687 5.375 12.49C5.375 13.1113 5.87868 13.615 6.5 13.615Z" fill="#343A40" stroke="#343A40"/>
</svg>
