<svg width="50" height="51" viewBox="0 0 50 51" fill="none" xmlns="http://www.w3.org/2000/svg">
<path d="M25 45.5776C36.0457 45.5776 45 36.6233 45 25.5776C45 14.5319 36.0457 5.57764 25 5.57764C13.9543 5.57764 5 14.5319 5 25.5776C5 36.6233 13.9543 45.5776 25 45.5776Z" fill="#1D9BF0"/>
<path d="M21.3409 36.127C30.2089 36.127 35.0589 28.7801 35.0589 22.4091C35.0589 22.2001 35.0549 21.9921 35.0449 21.7861C35.9859 21.1051 36.8049 20.2561 37.4499 19.2901C36.5859 19.6741 35.6559 19.9321 34.6809 20.0491C35.6759 19.4521 36.4409 18.5081 36.8009 17.3821C35.8689 17.9341 34.8379 18.3361 33.7399 18.5521C32.8599 17.6151 31.6069 17.0291 30.2209 17.0291C27.5579 17.0291 25.3989 19.1881 25.3989 21.8501C25.3989 22.2281 25.4409 22.5961 25.5239 22.9491C21.5169 22.7481 17.9639 20.8291 15.5859 17.9121C15.1719 18.6241 14.9329 19.4521 14.9329 20.3351C14.9329 22.0081 15.7839 23.4841 17.0789 24.3481C16.2879 24.3241 15.5449 24.1061 14.8949 23.7451C14.8939 23.7651 14.8939 23.7851 14.8939 23.8061C14.8939 26.1411 16.5559 28.0911 18.7619 28.5331C18.3569 28.6431 17.9309 28.7031 17.4909 28.7031C17.1799 28.7031 16.8779 28.6721 16.5849 28.6161C17.1989 30.5311 18.9789 31.925 21.0889 31.965C19.4389 33.258 17.3599 34.0291 15.1009 34.0291C14.7119 34.0291 14.3279 34.007 13.9509 33.962C16.0839 35.329 18.6169 36.127 21.3409 36.127Z" fill="white"/>
</svg>
