<svg width="153" height="31" viewBox="0 0 153 31" fill="none" xmlns="http://www.w3.org/2000/svg">
<mask id="path-1-inside-1" fill="white">
<path fill-rule="evenodd" clip-rule="evenodd" d="M10.2952 25.9575L1.66941 21.6888C-0.556463 20.5873 -0.556471 17.4127 1.6694 16.3112L6.30622 14.0166C7.05293 6.15205 13.6761 0 21.7362 0H136.736C145.297 0 152.236 6.93959 152.236 15.5C152.236 24.0604 145.297 31 136.736 31H21.7362C17.2058 31 13.1293 29.0564 10.2952 25.9575Z"/>
</mask>
<path fill-rule="evenodd" clip-rule="evenodd" d="M10.2952 25.9575L1.66941 21.6888C-0.556463 20.5873 -0.556471 17.4127 1.6694 16.3112L6.30622 14.0166C7.05293 6.15205 13.6761 0 21.7362 0H136.736C145.297 0 152.236 6.93959 152.236 15.5C152.236 24.0604 145.297 31 136.736 31H21.7362C17.2058 31 13.1293 29.0564 10.2952 25.9575Z" fill="white"/>
<path d="M10.2952 25.9575L11.0332 25.2826L10.9067 25.1443L10.7388 25.0612L10.2952 25.9575ZM1.66941 21.6888L2.11294 20.7925H2.11294L1.66941 21.6888ZM1.6694 16.3112L1.22587 15.415H1.22586L1.6694 16.3112ZM6.30622 14.0166L6.74975 14.9129L7.24908 14.6658L7.30174 14.1111L6.30622 14.0166ZM10.7388 25.0612L2.11294 20.7925L1.22587 22.585L9.8517 26.8537L10.7388 25.0612ZM2.11294 20.7925C0.629022 20.0582 0.629022 17.9418 2.11293 17.2075L1.22586 15.415C-1.74196 16.8837 -1.74195 21.1163 1.22587 22.585L2.11294 20.7925ZM2.11293 17.2075L6.74975 14.9129L5.86268 13.1203L1.22587 15.415L2.11293 17.2075ZM7.30174 14.1111C8.00018 6.75503 14.1967 1 21.7362 1V-1C13.1555 -1 6.10569 5.54907 5.31069 13.9221L7.30174 14.1111ZM21.7362 1H136.736V-1H21.7362V1ZM136.736 1C144.744 1 151.236 7.49187 151.236 15.5H153.236C153.236 6.3873 145.849 -1 136.736 -1V1ZM151.236 15.5C151.236 23.5081 144.744 30 136.736 30V32C145.849 32 153.236 24.6127 153.236 15.5H151.236ZM136.736 30H21.7362V32H136.736V30ZM21.7362 30C17.4981 30 13.6858 28.1831 11.0332 25.2826L9.5573 26.6323C12.5729 29.9297 16.9135 32 21.7362 32V30Z" fill="#E9ECEF" mask="url(#path-1-inside-1)"/>
</svg>
