<svg width="50" height="51" viewBox="0 0 50 51" fill="none" xmlns="http://www.w3.org/2000/svg">
<path fill-rule="evenodd" clip-rule="evenodd" d="M25 45.5776C36.0457 45.5776 45 36.6233 45 25.5776C45 14.5319 36.0457 5.57764 25 5.57764C13.9543 5.57764 5 14.5319 5 25.5776C5 36.6233 13.9543 45.5776 25 45.5776ZM13.0191 20.0126C12.5091 20.0126 12.0591 20.2676 12.0591 20.8376V26.3126C12.0591 29.8526 13.5591 30.9326 16.2591 30.9326C18.9741 30.9326 20.4591 29.8526 20.4591 26.3126V20.8376C20.4591 20.2676 20.0091 20.0126 19.4991 20.0126C18.9891 20.0126 18.5391 20.2676 18.5391 20.8376V26.3426C18.5391 28.4726 17.8341 29.1926 16.2591 29.1926C14.6841 29.1926 13.9791 28.4726 13.9791 26.3426V20.8376C13.9791 20.2676 13.5291 20.0126 13.0191 20.0126ZM23.9734 20.1026C23.0134 20.1026 22.6984 20.4026 22.6984 21.3476V30.0326C22.6984 30.6026 23.1484 30.8576 23.6584 30.8576C24.1684 30.8576 24.6184 30.6026 24.6184 30.0326V26.5076H26.3434C26.4484 26.5076 26.5684 26.5076 26.6734 26.4926L28.7284 30.4226C28.9834 30.9326 29.5234 30.9476 29.9884 30.7376C30.4534 30.5126 30.6484 30.0326 30.3784 29.5376L28.4884 26.1926C29.5984 25.7426 30.3034 24.8276 30.3034 23.4476V23.1776C30.3034 21.3026 29.0134 20.1026 26.7934 20.1026H23.9734ZM24.6184 21.7076H26.5384C27.8284 21.7076 28.3984 22.2326 28.3984 23.2226V23.4176C28.3984 24.3926 27.8284 24.9026 26.3734 24.9026H24.6184V21.7076ZM32.6007 20.8376C32.6007 20.2676 33.0507 20.0126 33.5607 20.0126C34.0707 20.0126 34.5207 20.2676 34.5207 20.8376V29.1476H38.8707C39.3357 29.1476 39.5457 29.5226 39.5457 29.9576C39.5457 30.3926 39.3357 30.7676 38.8707 30.7676H33.8757C32.9157 30.7676 32.6007 30.4676 32.6007 29.5226V20.8376Z" fill="#868E96"/>
</svg>
