<svg width="27" height="16" viewBox="0 0 27 16" fill="none" xmlns="http://www.w3.org/2000/svg">
<path d="M7.21369 11.5814L3.72606 1.33163L3.72607 1.33162L3.72547 1.32993C3.577 0.910173 3.30789 0.630302 2.91551 0.519368C2.54668 0.415094 2.1767 0.430406 1.8101 0.563663C1.44433 0.696622 1.16468 0.914912 0.982517 1.22146L0.982502 1.22145L0.981342 1.22348C0.802385 1.53559 0.813494 1.91365 0.97102 2.33302C0.97103 2.33305 0.97104 2.33308 0.97105 2.3331L5.42974 14.2429L5.42971 14.2429L5.43076 14.2456C5.62435 14.7342 5.8623 15.0898 6.15837 15.2786L6.15835 15.2786L6.1613 15.2804C6.4566 15.4593 6.78783 15.5477 7.15105 15.5477C7.52578 15.5477 7.85824 15.4602 8.14225 15.2795C8.45248 15.0909 8.69763 14.7352 8.89159 14.2456L8.8916 14.2456L8.89217 14.2441L13.4725 2.31365L13.4729 2.31264C13.6306 1.89284 13.6349 1.51382 13.4418 1.20195C13.2732 0.894774 13.0058 0.682173 12.6515 0.562752C12.2738 0.430906 11.9088 0.420922 11.5629 0.54168C11.1965 0.655364 10.9395 0.944297 10.7803 1.36812L10.7803 1.36811L10.7791 1.37142L7.21369 11.5814ZM24.4172 3.5713L24.4172 3.57147L24.4242 3.56924C24.7291 3.47201 24.9651 3.24001 25.1395 2.90298C25.3175 2.573 25.3653 2.23393 25.2733 1.89336C25.1803 1.54902 24.961 1.29114 24.6289 1.12341C23.6159 0.605082 22.3682 0.35 20.8927 0.35C20.029 0.35 19.2624 0.460699 18.5952 0.685257C17.9319 0.90851 17.3674 1.21705 16.9049 1.61303C16.4427 1.99507 16.0909 2.44939 15.8516 2.97539L15.8515 2.97537L15.8502 2.97846C15.6257 3.50271 15.5138 4.06177 15.5138 4.65416V4.79741C15.5138 5.49259 15.6101 6.09227 15.8081 6.59208L15.808 6.59211L15.8101 6.59689C16.0224 7.08287 16.3409 7.50377 16.763 7.85898L16.7629 7.85905L16.7672 7.86238C17.2016 8.20193 17.737 8.48183 18.3704 8.70428C19.0006 8.92562 19.7444 9.11831 20.6007 9.283C21.5665 9.47265 22.2418 9.72648 22.6465 10.033L22.6464 10.033L22.6507 10.036C23.0543 10.3201 23.2558 10.7164 23.2558 11.2435V11.3868C23.2558 11.8425 23.0699 12.2236 22.684 12.5382C22.3049 12.8339 21.6713 12.9967 20.7508 12.9967C20.1559 12.9967 19.5816 12.9233 19.0276 12.777C18.4714 12.6164 17.9631 12.4028 17.502 12.1368L17.5014 12.1364C17.1669 11.9455 16.8365 11.8774 16.5189 11.9576C16.2023 12.0375 15.9442 12.2515 15.7404 12.5742C15.5331 12.8888 15.4496 13.231 15.4947 13.5948L15.4948 13.5956C15.5423 13.9631 15.7575 14.258 16.1107 14.4809C16.6663 14.8315 17.3426 15.1164 18.1367 15.3375L18.1367 15.3376L18.1396 15.3383C18.9492 15.5462 19.7792 15.65 20.6292 15.65C22.4167 15.65 23.794 15.2785 24.7368 14.5113C25.6843 13.7403 26.15 12.6223 26.15 11.1821V10.998C26.15 9.8693 25.771 8.93521 25.0091 8.20864C24.2495 7.48431 23.0077 6.95152 21.3086 6.59466L21.3069 6.59432C20.6893 6.47233 20.1892 6.351 19.8049 6.23069C19.423 6.0976 19.1268 5.96033 18.9119 5.82066C18.7132 5.66943 18.5772 5.51143 18.4957 5.34865C18.4253 5.18097 18.3877 4.97798 18.3877 4.73602V4.61323C18.3877 4.42135 18.4349 4.2343 18.5317 4.05038C18.6412 3.85451 18.8005 3.6801 19.0139 3.52801L19.0139 3.5281L19.0185 3.52459C19.2312 3.36032 19.4908 3.23157 19.8001 3.14048L19.8001 3.14053L19.8039 3.13932C20.1235 3.03605 20.4992 2.98288 20.9332 2.98288C21.4667 2.98288 21.9221 3.02333 22.301 3.10249L22.301 3.10258L22.3059 3.10344C22.6838 3.16921 23.0841 3.29472 23.5073 3.48169L23.5084 3.48214C23.8178 3.61602 24.1227 3.64955 24.4172 3.5713Z" fill="#F8F9FA" stroke="#F8F9FA" stroke-width="0.3"/>
</svg>
