<svg width="25" height="16" viewBox="0 0 25 16" fill="none" xmlns="http://www.w3.org/2000/svg">
<path d="M12.5676 1.39009C12.7868 1.74129 12.772 2.1564 12.6087 2.58413L12.608 2.5861L8.13321 14.0589C7.93882 14.5419 7.68408 14.9176 7.34251 15.1225C7.03892 15.3123 6.68713 15.4016 6.29897 15.4016C5.9202 15.4016 5.5708 15.3106 5.25834 15.1243L5.25261 15.1209C4.92533 14.9154 4.67811 14.5399 4.48453 14.0589L4.48246 14.0538L0.127774 2.6038C-0.0349826 2.17725 -0.0569531 1.76365 0.148039 1.41173L0.150319 1.40782C0.347984 1.08039 0.65006 0.851178 1.03386 0.713852C1.41931 0.575939 1.81114 0.559675 2.2008 0.668113C2.63595 0.789212 2.93097 1.09722 3.0894 1.53811L3.09058 1.54141L6.36192 11.005L9.70837 1.57213C9.87465 1.13645 10.1526 0.817682 10.5634 0.69131C10.9346 0.564366 11.3234 0.576864 11.7175 0.712122L12.5676 1.39009Z" fill="#F8F9FA"/>
<path d="M23.2061 3.88105L23.1993 3.88284C22.8759 3.96742 22.5452 3.9294 22.2186 3.79027L22.2166 3.78941C21.812 3.61345 21.4321 3.49662 21.0764 3.43566L21.0668 3.43402C20.7089 3.36043 20.2745 3.32183 19.76 3.32183C19.3473 3.32183 18.9956 3.37164 18.7007 3.46545L18.6935 3.46773C18.4056 3.5512 18.1687 3.66767 17.9773 3.81316L17.9684 3.81988C17.7758 3.95504 17.636 4.10663 17.5411 4.27319C17.4577 4.42973 17.4186 4.58557 17.4186 4.74396V4.862C17.4186 5.07728 17.4522 5.25073 17.5104 5.38929C17.5774 5.51882 17.6914 5.65203 17.8681 5.78513C18.064 5.90972 18.3394 6.03604 18.7026 6.16076C19.0709 6.27412 19.5532 6.3894 20.1525 6.50594L20.1559 6.5066C21.8248 6.85162 23.069 7.37092 23.8398 8.09448C24.6155 8.82261 25 9.76015 25 10.8822V11.0593C25 12.4787 24.5317 13.5993 23.5653 14.3735C22.6084 15.14 21.2252 15.5 19.4631 15.5C18.6212 15.5 17.7986 15.3987 16.9962 15.196L16.9905 15.1945C16.205 14.9792 15.5309 14.7004 14.9737 14.3543C14.601 14.1227 14.3581 13.8049 14.3048 13.3986L14.3046 13.3971C14.256 13.0111 14.3468 12.6476 14.5673 12.3178C14.7808 11.9854 15.0605 11.7515 15.4137 11.6638C15.7688 11.5755 16.1294 11.6537 16.4789 11.85L16.48 11.8507C16.9191 12.1 17.4042 12.3009 17.9366 12.4523C18.465 12.5896 19.0131 12.6585 19.5819 12.6585C20.4696 12.6585 21.0486 12.5029 21.3808 12.2487C21.7257 11.9713 21.8837 11.6455 21.8837 11.256V11.1183C21.8837 10.6572 21.7085 10.3218 21.3552 10.077L21.3469 10.0713C20.9782 9.79643 20.3449 9.55727 19.4079 9.37616C18.567 9.21693 17.8335 9.0301 17.2098 8.81447C16.5799 8.59671 16.0422 8.32096 15.603 7.98299L15.5947 7.97662C15.1661 7.62163 14.841 7.19903 14.624 6.71017L14.6199 6.7009C14.4177 6.19847 14.3221 5.60229 14.3221 4.92103V4.78331C14.3221 4.19461 14.4352 3.63725 14.6627 3.11416L14.6654 3.10817C14.9087 2.58173 15.2662 2.12786 15.7334 1.74753C16.2012 1.35349 16.7692 1.04893 17.4311 0.829639C18.1005 0.607873 18.8651 0.5 19.7204 0.5C21.1774 0.5 22.4199 0.747862 23.435 1.25921C23.7921 1.43709 24.0359 1.71622 24.1386 2.0905C24.2393 2.45781 24.1852 2.82216 23.9958 3.16856C23.8131 3.51562 23.5566 3.77103 23.2129 3.87893L23.2061 3.88105Z" fill="#F8F9FA"/>
</svg>
