<svg width="66" height="25" viewBox="0 0 66 25" fill="none" xmlns="http://www.w3.org/2000/svg">
<path d="M20.1368 17.6733H14.9736V14.9433C14.9736 14.8533 14.9606 14.7719 14.9391 14.6904H18.453C19.0473 14.6904 19.5296 14.2104 19.5296 13.619C19.5296 13.0276 19.0473 12.5476 18.453 12.5476H10.4175V10.5804H18.453C19.0473 10.5804 19.5296 10.1004 19.5296 9.509C19.5296 8.91758 19.0473 8.43758 18.453 8.43758H10.4175V6.47043H18.453C19.0473 6.47043 19.5296 5.99043 19.5296 5.399C19.5296 4.80758 19.0473 4.32758 18.453 4.32758H9.34097C8.7467 4.32758 8.2644 4.80758 8.2644 5.399V13.619C8.2644 14.2104 8.7467 14.6904 9.34097 14.6904H12.8549C12.8333 14.7719 12.8204 14.8576 12.8204 14.9433V17.6733H7.66153C7.06726 17.6733 6.58496 18.1533 6.58496 18.7447C6.58496 19.3361 7.06726 19.8161 7.66153 19.8161H20.1368C20.731 19.8161 21.2133 19.3361 21.2133 18.7447C21.2133 18.1533 20.731 17.6733 20.1368 17.6733Z" fill="#191A1B"/>
<path d="M57.5084 17.6733H52.3494V14.9433C52.3494 14.8533 52.3365 14.7719 52.315 14.6904H55.8289C56.4232 14.6904 56.9055 14.2104 56.9055 13.619C56.9055 13.0276 56.4232 12.5476 55.8289 12.5476H47.7891V10.5804H55.8246C56.4189 10.5804 56.9012 10.1004 56.9012 9.509C56.9012 8.91758 56.4189 8.43758 55.8246 8.43758H47.7891V6.47043H55.8246C56.4189 6.47043 56.9012 5.99043 56.9012 5.399C56.9012 4.80758 56.4189 4.32758 55.8246 4.32758H46.7126C46.1183 4.32758 45.636 4.80758 45.636 5.399V13.619C45.636 14.2104 46.1183 14.6904 46.7126 14.6904H50.2265C50.2049 14.7719 50.192 14.8576 50.192 14.9433V17.6733H45.0331C44.4388 17.6733 43.9565 18.1533 43.9565 18.7447C43.9565 19.3361 44.4388 19.8161 45.0331 19.8161H57.5084C58.1026 19.8161 58.5849 19.3361 58.5849 18.7447C58.5849 18.1533 58.1026 17.6733 57.5084 17.6733Z" fill="#191A1B"/>
<path d="M33.8662 12.2133V5.3647C33.8662 4.77327 33.3839 4.29327 32.7896 4.29327H26.0072C25.413 4.29327 24.9307 4.77327 24.9307 5.3647V12.2176C24.9307 12.809 25.413 13.289 26.0072 13.289H32.7896C33.3839 13.2847 33.8662 12.809 33.8662 12.2133ZM31.713 11.1418H27.0838V6.43613H31.713V11.1418Z" fill="#191A1B"/>
<path d="M40.136 6.98041H38.336V4.65755C38.336 4.06612 37.8537 3.58612 37.2594 3.58612C36.6652 3.58612 36.1829 4.06612 36.1829 4.65755V13.4776C36.1829 14.069 36.6652 14.549 37.2594 14.549C37.8537 14.549 38.336 14.069 38.336 13.4776V9.12326H40.136C40.7303 9.12326 41.2126 8.64326 41.2126 8.05184C41.2126 7.46041 40.7303 6.98041 40.136 6.98041Z" fill="#191A1B"/>
<path d="M33.9737 14.9604C33.7713 14.7204 33.4699 14.5833 33.1555 14.5833C33.1555 14.5833 33.1555 14.5833 33.1512 14.5833C32.8368 14.5833 32.5397 14.7204 32.333 14.9561L28.2291 19.7218C27.8416 20.1718 27.8933 20.849 28.3454 21.2347C28.7976 21.6204 29.4737 21.569 29.8655 21.119L33.1469 17.309L36.4713 21.2133C36.6866 21.4618 36.9881 21.5904 37.2938 21.5904C37.5393 21.5904 37.789 21.509 37.9914 21.3375C38.4436 20.9561 38.4996 20.279 38.1163 19.829L33.9737 14.9604Z" fill="#191A1B"/>
</svg>
