<svg width="301" height="117" viewBox="0 0 301 117" fill="none" xmlns="http://www.w3.org/2000/svg">
<path d="M150.354 116.66C233.214 116.66 300.384 103.752 300.384 87.83C300.384 71.9076 233.214 59 150.354 59C67.4952 59 0.324463 71.9076 0.324463 87.83C0.324463 103.752 67.4952 116.66 150.354 116.66Z" fill="#F0F0F0"/>
<path d="M45.8244 0.75H68.3745L45.8244 56.45H61.9044V36.44H80.5344V55.27H91.5144V72.33H81.3244V87.83H61.5144V73.12H22.2944V56.06L45.8244 0.75Z" fill="#B1ACAB" stroke="black" stroke-miterlimit="10"/>
<path d="M232.724 0.75H255.274L232.724 56.45H248.804V36.44H267.434V55.27H278.414V72.33H268.214V87.83H248.414V73.12H209.184V56.06L232.724 0.75Z" fill="#B1ACAB" stroke="black" stroke-miterlimit="10"/>
<path d="M196.784 57.5001C196.304 42.6401 184.534 30.2201 168.074 25.0901H168.064C164.444 19.3901 160.864 17.2901 160.864 17.2901C140.684 4.85007 129.464 19.3301 124.584 29.0001C111.784 35.8701 103.504 47.5401 103.924 60.5001C104.574 80.6101 125.894 96.2401 151.534 95.4101C177.174 94.5901 197.434 77.6101 196.784 57.5001Z" fill="#C4B9B6"/>
<path d="M121.594 35.9497C121.594 35.9497 132.184 -0.720261 160.864 16.9497C160.864 16.9497 166.984 20.5097 171.314 31.0397" stroke="black" stroke-miterlimit="10" stroke-linecap="round"/>
<path d="M168.074 24.75C184.534 29.88 196.294 42.3 196.784 57.16C197.434 77.27 177.174 94.25 151.534 95.08C125.894 95.91 104.574 80.28 103.924 60.17C103.504 47.2 111.774 35.54 124.584 28.67" stroke="black" stroke-miterlimit="10"/>
<path d="M145.074 55.4098C145.834 54.0198 146.284 52.3398 146.284 50.5298C146.284 45.7098 143.114 41.7998 139.204 41.7998C135.294 41.7998 132.125 45.7098 132.125 50.5298C132.125 53.1698 133.074 55.5298 134.574 57.1398L145.074 55.4098Z" fill="white" stroke="black" stroke-miterlimit="10"/>
<path d="M139.204 54.4604C141.182 54.4604 142.784 52.3113 142.784 49.6603C142.784 47.0094 141.182 44.8604 139.204 44.8604C137.227 44.8604 135.625 47.0094 135.625 49.6603C135.625 52.3113 137.227 54.4604 139.204 54.4604Z" fill="black"/>
<path d="M143.424 17.0799C144.334 15.8799 149.714 9.1999 157.894 7.3299C158.054 7.2899 158.174 7.46988 158.084 7.59988C157.224 8.85988 154.394 13.1399 152.584 17.6999C152.464 17.9999 152.714 18.3099 153.024 18.2599C155.794 17.8399 166.114 16.6399 173.404 21.0399C173.554 21.1299 173.494 21.3799 173.314 21.3699C170.634 21.3299 160.144 21.3699 152.714 24.0699C152.544 24.1299 152.444 24.2899 152.444 24.4699L152.654 38.0199C152.654 38.1899 152.444 38.2599 152.334 38.1299L144.164 27.2699C144.074 27.1499 143.934 27.0899 143.784 27.1099C142.204 27.3099 132.864 28.5799 124.684 32.0899C124.504 32.1699 124.354 31.9499 124.494 31.8099C126.194 30.0899 131.264 25.2999 136.974 23.2499C137.334 23.1199 137.344 22.6099 136.984 22.4799C134.674 21.6199 128.794 19.6599 120.854 18.6799C120.674 18.6599 120.624 18.4099 120.794 18.3499C122.784 17.5599 129.884 15.3399 143.044 17.2299C143.194 17.2499 143.334 17.1999 143.424 17.0799Z" fill="#898F8D" stroke="black" stroke-miterlimit="10"/>
<path d="M146.749 23.498C148.605 23.0394 149.911 21.8679 149.667 20.8813C149.423 19.8948 147.721 19.4668 145.866 19.9255C144.011 20.3841 142.705 21.5556 142.949 22.5421C143.193 23.5287 144.894 23.9566 146.749 23.498Z" stroke="black" stroke-miterlimit="10"/>
<path d="M160.354 75.9103C160.504 75.9103 160.624 75.7903 160.634 75.6404C160.784 67.4404 154.694 63.3604 149.054 63.3604C143.454 63.3604 137.454 68.3003 138.174 75.6703C138.184 75.8103 138.314 75.9203 138.454 75.9203H160.354V75.9103Z" fill="#312B2A"/>
<path d="M156.194 74.4896C156.484 74.4896 156.724 74.2496 156.714 73.9696C156.574 70.0196 152.724 68.0596 149.164 68.0596C145.624 68.0596 141.834 70.4396 142.034 74.0196C142.044 74.2896 142.284 74.4896 142.554 74.4896H156.194Z" fill="#D7CBC8"/>
<path d="M151.915 58.1396L157.755 59.6596" stroke="black" stroke-miterlimit="10" stroke-linecap="round"/>
<path d="M144.694 58.1396L140.014 59.3596" stroke="black" stroke-miterlimit="10" stroke-linecap="round"/>
<path d="M151.845 55.8298L162.444 56.6998C163.724 55.1198 164.514 52.9398 164.514 50.5298C164.514 45.7098 161.345 41.7998 157.435 41.7998C153.525 41.7998 150.354 45.7098 150.354 50.5298C150.354 52.5098 150.884 54.3298 151.784 55.7998L151.845 55.8298Z" fill="white" stroke="black" stroke-miterlimit="10"/>
<path d="M157.435 54.4604C159.412 54.4604 161.014 52.3113 161.014 49.6603C161.014 47.0094 159.412 44.8604 157.435 44.8604C155.457 44.8604 153.854 47.0094 153.854 49.6603C153.854 52.3113 155.457 54.4604 157.435 54.4604Z" fill="black"/>
</svg>
