<svg width="92" height="86" viewBox="0 0 92 86" fill="none" xmlns="http://www.w3.org/2000/svg">
<path d="M91.3843 48.7253C90.9143 34.2453 79.4543 22.1553 63.4243 17.1453H63.4143C59.8843 11.5953 56.3943 9.54535 56.3943 9.54535C36.7343 -2.57465 25.8043 11.5253 21.0443 20.9553C8.57434 27.6553 0.50434 39.0153 0.91434 51.6453C1.54434 71.2353 22.3143 86.4653 47.2943 85.6553C72.2843 84.8553 92.0243 68.3253 91.3843 48.7253Z" fill="#D4D686"/>
<path d="M18.1443 27.7352C18.1443 27.7352 28.4643 -7.99477 56.3943 9.22523C56.3943 9.22523 62.3543 12.6952 66.5743 22.9552" stroke="black" stroke-miterlimit="10" stroke-linecap="round"/>
<path d="M63.4244 16.8262C79.4544 21.8262 90.9244 33.9262 91.3844 48.4062C92.0144 67.9962 72.2844 84.5362 47.3044 85.3462C22.3244 86.1562 1.55437 70.9262 0.924367 51.3362C0.514367 38.7062 8.57437 27.3362 21.0544 20.6462" stroke="black" stroke-miterlimit="10"/>
<path d="M53.7442 51.5859C57.555 51.5859 60.6442 47.7804 60.6442 43.0859C60.6442 38.3915 57.555 34.5859 53.7442 34.5859C49.9334 34.5859 46.8442 38.3915 46.8442 43.0859C46.8442 47.7804 49.9334 51.5859 53.7442 51.5859Z" fill="white" stroke="black" stroke-miterlimit="10"/>
<path d="M53.7444 46.9054C55.6719 46.9054 57.2344 44.8146 57.2344 42.2354C57.2344 39.6563 55.6719 37.5654 53.7444 37.5654C51.8169 37.5654 50.2544 39.6563 50.2544 42.2354C50.2544 44.8146 51.8169 46.9054 53.7444 46.9054Z" fill="black"/>
<path d="M35.9942 51.5859C39.805 51.5859 42.8942 47.7804 42.8942 43.0859C42.8942 38.3915 39.805 34.5859 35.9942 34.5859C32.1834 34.5859 29.0942 38.3915 29.0942 43.0859C29.0942 47.7804 32.1834 51.5859 35.9942 51.5859Z" fill="white" stroke="black" stroke-miterlimit="10"/>
<path d="M35.9944 46.9054C37.9219 46.9054 39.4844 44.8146 39.4844 42.2354C39.4844 39.6563 37.9219 37.5654 35.9944 37.5654C34.0669 37.5654 32.5044 39.6563 32.5044 42.2354C32.5044 44.8146 34.0669 46.9054 35.9944 46.9054Z" fill="black"/>
<path d="M40.6743 59.4453C40.6743 59.4453 46.7743 66.4453 53.7443 59.4453" stroke="black" stroke-miterlimit="10" stroke-linecap="round"/>
<path d="M40.1043 10.5057C40.9943 9.33568 46.2343 2.83568 54.1943 1.00568C54.3443 0.965676 54.4743 1.14568 54.3843 1.27568C53.5443 2.50568 50.7943 6.66568 49.0243 11.1157C48.9143 11.4057 49.1543 11.7057 49.4543 11.6657C52.1543 11.2557 62.2043 10.0957 69.2943 14.3757C69.4443 14.4657 69.3743 14.7057 69.2043 14.6957C66.5943 14.6557 56.3843 14.6957 49.1443 17.3257C48.9843 17.3857 48.8743 17.5457 48.8743 17.7157L49.0743 30.9057C49.0743 31.0757 48.8643 31.1457 48.7643 31.0157L40.8043 20.4357C40.7143 20.3157 40.5843 20.2557 40.4343 20.2757C38.8943 20.4657 29.8043 21.7057 21.8343 25.1157C21.6643 25.1857 21.5143 24.9757 21.6443 24.8457C23.2943 23.1657 28.2343 18.5057 33.8043 16.5157C34.1543 16.3857 34.1643 15.8957 33.8143 15.7657C31.5643 14.9257 25.8443 13.0157 18.1043 12.0657C17.9243 12.0457 17.8843 11.8057 18.0443 11.7457C19.9843 10.9757 26.8943 8.81567 39.7143 10.6557C39.8743 10.6757 40.0143 10.6257 40.1043 10.5057Z" fill="#5DAA63" stroke="black" stroke-miterlimit="10"/>
<path d="M43.33 16.7487C45.1369 16.302 46.4093 15.1619 46.172 14.2022C45.9347 13.2424 44.2777 12.8265 42.4708 13.2732C40.664 13.7199 39.3916 14.86 39.6288 15.8198C39.8661 16.7795 41.5232 17.1954 43.33 16.7487Z" stroke="black" stroke-miterlimit="10"/>
</svg>
