<svg width="92" height="86" viewBox="0 0 92 86" fill="none" xmlns="http://www.w3.org/2000/svg">
<path d="M91.0843 48.7253C90.6143 34.2453 79.1543 22.1553 63.1243 17.1453H63.1143C59.5843 11.5953 56.0943 9.54535 56.0943 9.54535C36.4343 -2.57465 25.5043 11.5253 20.7443 20.9553C8.27429 27.6553 0.204291 39.0153 0.614291 51.6453C1.24429 71.2353 22.0143 86.4653 46.9943 85.6553C71.9743 84.8553 91.7143 68.3253 91.0843 48.7253Z" fill="#FAA16F"/>
<path d="M17.8342 27.7352C17.8342 27.7352 28.1542 -7.99477 56.0842 9.22523C56.0842 9.22523 62.0442 12.6952 66.2642 22.9552" stroke="black" stroke-miterlimit="10" stroke-linecap="round"/>
<path d="M63.1143 16.8262C79.1443 21.8262 90.6143 33.9262 91.0743 48.4062C91.7043 67.9962 71.9743 84.5362 46.9943 85.3462C22.0143 86.1562 1.24431 70.9262 0.614308 51.3362C0.204308 38.7062 8.26431 27.3362 20.7443 20.6462" stroke="black" stroke-miterlimit="10"/>
<path d="M53.4342 51.5859C57.245 51.5859 60.3342 47.7804 60.3342 43.0859C60.3342 38.3915 57.245 34.5859 53.4342 34.5859C49.6234 34.5859 46.5342 38.3915 46.5342 43.0859C46.5342 47.7804 49.6234 51.5859 53.4342 51.5859Z" fill="white" stroke="black" stroke-miterlimit="10"/>
<path d="M53.4344 46.9054C55.3618 46.9054 56.9243 44.8146 56.9243 42.2354C56.9243 39.6563 55.3618 37.5654 53.4344 37.5654C51.5069 37.5654 49.9443 39.6563 49.9443 42.2354C49.9443 44.8146 51.5069 46.9054 53.4344 46.9054Z" fill="black"/>
<path d="M35.6842 51.5859C39.495 51.5859 42.5842 47.7804 42.5842 43.0859C42.5842 38.3915 39.495 34.5859 35.6842 34.5859C31.8734 34.5859 28.7842 38.3915 28.7842 43.0859C28.7842 47.7804 31.8734 51.5859 35.6842 51.5859Z" fill="white" stroke="black" stroke-miterlimit="10"/>
<path d="M35.6844 46.9054C37.6118 46.9054 39.1743 44.8146 39.1743 42.2354C39.1743 39.6563 37.6118 37.5654 35.6844 37.5654C33.7569 37.5654 32.1943 39.6563 32.1943 42.2354C32.1943 44.8146 33.7569 46.9054 35.6844 46.9054Z" fill="black"/>
<path d="M40.3743 59.4453C40.3743 59.4453 46.4742 66.4453 53.4442 59.4453" stroke="black" stroke-miterlimit="10" stroke-linecap="round"/>
<path d="M39.7943 10.5057C40.6843 9.33568 45.9243 2.83568 53.8843 1.00568C54.0343 0.965676 54.1643 1.14568 54.0743 1.27568C53.2343 2.50568 50.4843 6.66568 48.7143 11.1157C48.6043 11.4057 48.8443 11.7057 49.1443 11.6657C51.8443 11.2557 61.8943 10.0957 68.9843 14.3757C69.1343 14.4657 69.0643 14.7057 68.8943 14.6957C66.2843 14.6557 56.0743 14.6957 48.8343 17.3257C48.6743 17.3857 48.5643 17.5457 48.5643 17.7157L48.7643 30.9057C48.7643 31.0757 48.5543 31.1457 48.4543 31.0157L40.4943 20.4357C40.4043 20.3157 40.2743 20.2557 40.1243 20.2757C38.5843 20.4657 29.4943 21.7057 21.5243 25.1157C21.3543 25.1857 21.2043 24.9757 21.3343 24.8457C22.9843 23.1657 27.9243 18.5057 33.4943 16.5157C33.8443 16.3857 33.8543 15.8957 33.5043 15.7657C31.2543 14.9257 25.5343 13.0157 17.7943 12.0657C17.6143 12.0457 17.5743 11.8057 17.7343 11.7457C19.6743 10.9757 26.5843 8.81567 39.4043 10.6557C39.5643 10.6757 39.7143 10.6257 39.7943 10.5057Z" fill="#5DAA63" stroke="black" stroke-miterlimit="10"/>
<path d="M43.0182 16.7555C44.8251 16.3088 46.0975 15.1687 45.8602 14.209C45.623 13.2493 43.9659 12.8334 42.159 13.2801C40.3522 13.7268 39.0798 14.8669 39.317 15.8266C39.5543 16.7863 41.2114 17.2022 43.0182 16.7555Z" stroke="black" stroke-miterlimit="10"/>
</svg>
