<svg width="29" height="27" viewBox="0 0 29 27" fill="none" xmlns="http://www.w3.org/2000/svg">
<path d="M27.9956 15.2387C27.8554 10.9186 24.4364 7.31166 19.6539 5.81696H19.6509C18.5978 4.16115 17.5566 3.54954 17.5566 3.54954C11.6911 -0.0663824 8.43023 4.14027 7.01011 6.95365C3.28977 8.95255 0.882132 12.3417 1.00445 16.1098C1.19241 21.9544 7.38901 26.4981 14.8416 26.2565C22.2943 26.0178 28.1836 21.0832 27.9956 15.2387Z" fill="#F65A5A"/>
<path d="M6.14185 8.97639C6.14185 8.97639 9.22075 -1.68343 17.5535 3.45405C17.5535 3.45405 19.3316 4.4893 20.5906 7.55031" stroke="black" stroke-width="0.298344" stroke-miterlimit="10" stroke-linecap="round"/>
<path d="M19.6509 5.7215C24.4334 7.21322 27.8554 10.8232 27.9926 15.1432C28.1806 20.9877 22.2943 25.9224 14.8416 26.164C7.38902 26.4057 1.19241 21.8619 1.00446 16.0173C0.882137 12.2493 3.28679 8.85709 7.01012 6.86117" stroke="black" stroke-width="0.298344" stroke-miterlimit="10"/>
<path d="M16.7629 16.0919C17.8998 16.0919 18.8215 14.9566 18.8215 13.556C18.8215 12.1555 17.8998 11.0201 16.7629 11.0201C15.626 11.0201 14.7043 12.1555 14.7043 13.556C14.7043 14.9566 15.626 16.0919 16.7629 16.0919Z" fill="white" stroke="black" stroke-width="0.298344" stroke-miterlimit="10"/>
<path d="M16.7629 14.6956C17.338 14.6956 17.8041 14.0719 17.8041 13.3024C17.8041 12.5329 17.338 11.9091 16.7629 11.9091C16.1879 11.9091 15.7217 12.5329 15.7217 13.3024C15.7217 14.0719 16.1879 14.6956 16.7629 14.6956Z" fill="black"/>
<path d="M11.4673 16.0919C12.6042 16.0919 13.5258 14.9566 13.5258 13.556C13.5258 12.1555 12.6042 11.0201 11.4673 11.0201C10.3304 11.0201 9.40869 12.1555 9.40869 13.556C9.40869 14.9566 10.3304 16.0919 11.4673 16.0919Z" fill="white" stroke="black" stroke-width="0.298344" stroke-miterlimit="10"/>
<path d="M11.4675 14.6956C12.0425 14.6956 12.5087 14.0719 12.5087 13.3024C12.5087 12.5329 12.0425 11.9091 11.4675 11.9091C10.8924 11.9091 10.4263 12.5329 10.4263 13.3024C10.4263 14.0719 10.8924 14.6956 11.4675 14.6956Z" fill="black"/>
<path d="M12.8635 18.4369C12.8635 18.4369 14.6834 20.5253 16.7629 18.4369" stroke="black" stroke-width="0.298344" stroke-miterlimit="10" stroke-linecap="round"/>
<path d="M12.6936 3.83596C12.9592 3.4869 14.5225 1.54766 16.8973 1.00169C16.9421 0.98976 16.9808 1.04346 16.954 1.08224C16.7034 1.44921 15.8829 2.69032 15.3549 4.01795C15.3221 4.10447 15.3937 4.19397 15.4832 4.18204C16.2887 4.05971 19.287 3.71364 21.4023 4.99055C21.4471 5.0174 21.4262 5.089 21.3754 5.08602C20.5968 5.07408 17.5507 5.08602 15.3907 5.87066C15.3429 5.88856 15.3101 5.9363 15.3101 5.98702L15.3698 9.92217C15.3698 9.97289 15.3071 9.99377 15.2773 9.95499L12.9025 6.79851C12.8756 6.76271 12.8369 6.74481 12.7921 6.75078C12.3327 6.80746 9.62071 7.17741 7.24291 8.19476C7.19219 8.21565 7.14743 8.15299 7.18622 8.11421C7.67849 7.61299 9.15231 6.22271 10.8141 5.629C10.9185 5.59022 10.9215 5.44403 10.8171 5.40525C10.1458 5.15464 8.43926 4.5848 6.13008 4.30138C6.07638 4.29541 6.06444 4.2238 6.11218 4.2059C6.69097 3.97618 8.75253 3.33176 12.5773 3.88071C12.625 3.88668 12.6698 3.87176 12.6936 3.83596Z" fill="#5DAA63" stroke="black" stroke-width="0.298344" stroke-miterlimit="10"/>
<path d="M13.655 5.7022C14.1941 5.56893 14.5737 5.22879 14.5029 4.94246C14.4321 4.65613 13.9377 4.53205 13.3987 4.66532C12.8596 4.79858 12.48 5.13873 12.5508 5.42506C12.6216 5.71139 13.1159 5.83547 13.655 5.7022Z" stroke="black" stroke-width="0.298344" stroke-miterlimit="10"/>
</svg>
