<svg width="800" height="800" viewBox="0 0 800 800" fill="none" xmlns="http://www.w3.org/2000/svg">
<rect width="800" height="800" fill="#F65A5A"/>
<path d="M765.183 804.098L764.689 804.75H79.0204C74.2559 803.052 70.2223 801.058 67.3224 797.51C64.3722 793.9 62.1963 788.167 62.4971 778.149C62.8325 772.158 66.2104 765.462 71.553 760.202C76.8896 754.948 83.7748 751.531 90.6512 751.531H144.539C151.223 751.531 157.402 746.665 157.402 739.768C157.402 732.87 151.223 728.005 144.539 728.005H144.338C133.907 728.005 126.419 720.365 127.021 712.13C127.568 704.672 135.234 698.196 145.055 698.196H211.284C221.525 698.196 230.619 690.783 230.619 680.72V556.873V556.872V556.872V556.872V556.872V556.871V556.871V556.871V556.87V556.87V556.869V556.869V556.868V556.868V556.867V556.866V556.866V556.865V556.864V556.863V556.862V556.861V556.86V556.859V556.858V556.857V556.856V556.855V556.853V556.852V556.851V556.849V556.848V556.847V556.845V556.844V556.842V556.84V556.839V556.837V556.835V556.834V556.832V556.83V556.828V556.826V556.825V556.823V556.821V556.819V556.816V556.814V556.812V556.81V556.808V556.806V556.803V556.801V556.799V556.796V556.794V556.791V556.789V556.786V556.784V556.781V556.779V556.776V556.773V556.77V556.768V556.765V556.762V556.759V556.756V556.753V556.75V556.747V556.744V556.741V556.738V556.735V556.732V556.729V556.726V556.722V556.719V556.716V556.712V556.709V556.706V556.702V556.699V556.695V556.692V556.688V556.685V556.681V556.678V556.674V556.67V556.666V556.663V556.659V556.655V556.651V556.647V556.644V556.64V556.636V556.632V556.628V556.624V556.62V556.616V556.612V556.608V556.603V556.599V556.595V556.591V556.587V556.582V556.578V556.574V556.569V556.565V556.561V556.556V556.552V556.547V556.543V556.538V556.534V556.529V556.525V556.52V556.515V556.511V556.506V556.501V556.497V556.492V556.487V556.482V556.477V556.473V556.468V556.463V556.458V556.453V556.448V556.443V556.438V556.433V556.428V556.423V556.418V556.413V556.408V556.403V556.398V556.393V556.387V556.382V556.377V556.372V556.367V556.361V556.356V556.351V556.346V556.34V556.335V556.329V556.324V556.319V556.313V556.308V556.302V556.297V556.292V556.286V556.281V556.275V556.269V556.264V556.258V556.253V556.247V556.242V556.236V556.23V556.225V556.219V556.213V556.208V556.202V556.196V556.19V556.185V556.179V556.173V556.167V556.162V556.156V556.15V556.144V556.138V556.132V556.127V556.121V556.115V556.109V556.103V556.097V556.091V556.085V556.079V556.073V556.067V556.061V556.055V556.049V556.043V556.037V556.031V556.025V556.019V556.013V556.007V556.001V555.995V555.989V555.983V555.977V555.971V555.964V555.958V555.952V555.946V555.94V555.934V555.928V555.921V555.915V555.909V555.903V555.897V555.891V555.884V555.878V555.872V555.866V555.859V555.853V555.847V555.841V555.835V555.828V555.822V555.816V555.81V555.803V555.797V555.791V555.785V555.778V555.772V555.766V555.76V555.753V555.747V555.741V555.734V555.728V555.722V555.716V555.709V555.703V555.697V555.691V555.684V555.678V555.672V555.665V555.659V555.653V555.647V555.64V555.634V555.628V555.622V555.615V555.609V555.603V555.596V555.59V555.584V555.578V555.571V555.565V555.559V555.553V555.546V555.54V555.534V555.528V555.522V555.515V555.509V555.503V555.497V555.49V555.484V555.478V555.472V555.466V555.459V555.453V555.447V555.441V555.435V555.429V555.423V555.416V555.41V555.404V555.398V555.392V555.386V555.38V555.374V555.368V555.361V555.355V555.349V555.343V555.337V555.331V555.325V555.319V555.313V555.307V555.301V555.295V555.289V555.283V555.277V555.271V555.266V555.26V555.254V555.248V555.242V555.236V555.23V555.224V555.219V555.213V555.207V555.201V555.195V555.19V555.184V555.178V555.172V555.167V555.161V555.155V555.149V555.144V555.138V555.132V555.127V555.121V555.116V555.11V555.104V555.099V555.093V555.088V555.082V555.077V555.071V555.066V555.06V555.055V555.05V555.044V555.039V555.033V555.028V555.023V555.017V555.012V555.007V555.002V554.996V554.991V554.986V554.981V554.976V554.97V554.965V554.96V554.955V554.95V554.945V554.94V554.935V554.93V554.925V554.92V554.915V554.91V554.905V554.9V554.896V554.891V554.886V554.881V554.876V554.872V554.867V554.862V554.858V554.853V554.848V554.844V554.839V554.834V554.83V554.825V554.821V554.816V554.812V554.808V554.803V554.799V554.794V554.79V554.786V554.782V554.777V554.773V554.769V554.765V554.76V554.756V554.752V554.748V554.744V554.74V554.736V554.732V554.728V554.724V554.72V554.717V554.713V554.709V554.705V554.701V554.698V554.694V554.69V554.687V554.683V554.68V554.676V554.672V554.669V554.666V554.662V554.659V554.655V554.652V554.649V554.645V554.642V554.639V554.636V554.633V554.629V554.626V554.623V554.62V554.617V554.614V554.611V554.608V554.606V554.603V554.6V554.597V554.594V554.592V554.589V554.586V554.584V554.581V554.579V554.576V554.574V554.571V554.569V554.567V554.564V554.562V554.56C230.619 547.822 234.693 540.852 243.338 534.01C251.945 527.198 264.617 520.91 280.589 515.565C312.496 504.886 356.803 498.221 405.917 498.221C455.031 498.221 499.344 504.886 531.259 515.567C547.235 520.914 559.912 527.204 568.525 534.019C577.175 540.864 581.256 547.838 581.261 554.582V556.892V687.165C581.261 697.202 590.325 704.641 600.596 704.641H642.389C655.259 704.641 664.937 713.771 664.937 724.131C664.937 734.491 655.259 743.621 642.389 743.621H642.232C634.335 743.621 627.198 749.361 627.198 757.302C627.198 765.271 634.367 770.983 642.232 770.983H734.286C745.977 770.983 755.939 776.796 761.805 784.087C767.841 791.591 768.759 799.387 765.183 804.098Z" fill="#FFD563" stroke="black" stroke-width="7"/>
<path d="M506.578 456.742C552.34 456.742 589.438 411.042 589.438 354.668C589.438 298.294 552.34 252.594 506.578 252.594C460.815 252.594 423.717 298.294 423.717 354.668C423.717 411.042 460.815 456.742 506.578 456.742Z" fill="white" stroke="black" stroke-width="7" stroke-miterlimit="10"/>
<path d="M506.574 432.162C529.72 432.162 548.484 407.053 548.484 376.081C548.484 345.108 529.72 320 506.574 320C483.427 320 464.663 345.108 464.663 376.081C464.663 407.053 483.427 432.162 506.574 432.162Z" fill="black"/>
<path d="M293.423 456.742C339.185 456.742 376.283 411.042 376.283 354.668C376.283 298.294 339.185 252.594 293.423 252.594C247.66 252.594 210.562 298.294 210.562 354.668C210.562 411.042 247.66 456.742 293.423 456.742Z" fill="white" stroke="black" stroke-width="7" stroke-miterlimit="10"/>
<path d="M293.419 432.162C316.565 432.162 335.329 407.053 335.329 376.081C335.329 345.108 316.565 320 293.419 320C270.272 320 251.508 345.108 251.508 376.081C251.508 407.053 270.272 432.162 293.419 432.162Z" fill="black"/>
<path d="M455.342 455.113C455.342 455.113 511.225 417.443 560 455.113H455.342Z" fill="#F65A5A"/>
<path d="M455.342 455.113C455.342 455.113 511.225 417.443 560 455.113" stroke="black" stroke-width="7" stroke-miterlimit="10" stroke-linecap="round"/>
<path d="M243.592 460C243.592 460 296.807 421.17 343.253 460H243.592Z" fill="#F65A5A"/>
<path d="M243.592 460C243.592 460 296.807 421.17 343.253 460" stroke="black" stroke-width="7" stroke-miterlimit="10" stroke-linecap="round"/>
<path d="M295.075 627.722V728.318" stroke="#231F20" stroke-width="7" stroke-miterlimit="10" stroke-linecap="round"/>
<path d="M528.922 627.722V697.31" stroke="#231F20" stroke-width="7" stroke-miterlimit="10" stroke-linecap="round"/>
<path d="M357.617 687.831V748.07" stroke="#231F20" stroke-width="7" stroke-miterlimit="10" stroke-linecap="round"/>
<path d="M480.713 637.762V756.858" stroke="#231F20" stroke-width="7" stroke-miterlimit="10" stroke-linecap="round"/>
<rect x="268.5" y="456.742" width="51.5" height="20" fill="#F65A5A"/>
<rect x="472.806" y="455.114" width="70.7874" height="20" fill="#F65A5A"/>
<path d="M354.696 63.7953C364.69 50.6997 423.525 -22.0488 512.759 -42.4162C514.441 -42.8618 515.894 -40.8425 514.884 -39.3873C505.449 -25.6183 474.558 20.9514 454.645 70.7881C453.407 74.036 456.091 77.402 459.454 76.959C489.718 72.412 602.361 59.5896 681.738 107.677C683.418 108.688 682.629 111.377 680.724 111.261C651.477 110.767 537.06 111.036 455.88 140.381C454.086 141.051 452.851 142.842 452.848 144.747L454.857 292.561C454.854 294.466 452.499 295.247 451.381 293.788L362.366 175.086C361.359 173.739 359.903 173.065 358.222 173.286C340.961 175.388 239.074 189.124 149.7 227.197C147.794 227.979 146.117 225.623 147.576 224.168C166.096 205.371 221.537 153.236 283.991 131.034C287.915 129.583 288.036 124.092 284.116 122.63C258.916 113.177 194.85 91.6721 108.131 80.8899C106.114 80.6627 105.67 77.9724 107.464 77.3028C129.218 68.7081 206.691 44.6243 350.323 65.4694C352.116 65.6963 353.797 65.1387 354.696 63.7953Z" fill="#5DAA63" stroke="black" stroke-width="7" stroke-miterlimit="10"/>
<path d="M390.693 133.95C410.949 128.976 425.227 116.222 422.586 105.463C419.944 94.7036 401.381 90.0137 381.125 94.9876C360.869 99.9615 346.591 112.716 349.233 123.475C351.874 134.234 370.437 138.924 390.693 133.95Z" stroke="black" stroke-width="7" stroke-miterlimit="10"/>
<rect x="80" y="779" width="660" height="40.5" fill="#FFD563"/>
</svg>
