<svg width="92" height="111" viewBox="0 0 92 111" fill="none" xmlns="http://www.w3.org/2000/svg">
<path d="M84.4849 98.2961C83.7149 97.7561 83.0149 96.8961 83.1649 95.9661C83.2849 95.2361 84.2249 94.7761 84.8249 95.0161C85.2249 95.1861 85.6549 94.8061 85.6249 94.3661C85.5949 93.8861 85.3349 93.3861 84.9449 93.0861C84.2349 92.5561 83.2849 92.4961 82.3949 92.4761C79.1249 92.3661 75.8549 92.2561 72.5849 92.1561V65.7461H24.5749V91.1261L24.2749 91.1161C22.3949 92.4961 20.0349 93.2061 17.7149 93.0961C15.5549 92.9961 13.3049 92.2261 11.4849 94.5861C11.4049 97.3861 13.5049 97.2561 15.1449 97.1361C17.5049 96.9661 19.9049 97.2061 22.1849 97.8561C22.8549 98.0461 23.5449 98.2861 24.0149 98.7961C24.4849 99.3061 24.6749 100.146 24.2549 100.696C23.7249 101.396 22.5249 101.346 22.5549 102.696C22.5649 103.326 22.8849 103.926 23.3849 104.296C24.1949 104.886 25.2549 104.966 26.2649 105.006C37.2649 105.456 48.7749 104.196 58.8549 108.616C59.8649 109.056 60.9149 109.566 62.0149 109.526C63.1249 109.486 64.2949 108.646 64.2449 107.536C64.2149 106.906 63.8149 106.316 63.8649 105.676C63.9249 104.986 64.5549 104.446 65.2249 104.266C65.8949 104.086 66.6049 104.176 67.2949 104.276C70.9449 104.796 74.5949 105.316 78.2449 105.836C81.3549 106.276 84.7649 106.676 87.0549 103.536C88.0049 99.8961 85.9949 99.3661 84.4849 98.2961Z" fill="#FFD563"/>
<path d="M91.485 48.7258C91.015 34.2458 79.555 22.1558 63.525 17.1458H63.515C59.985 11.5958 56.495 9.54584 56.495 9.54584C36.835 -2.55416 25.895 11.5458 21.145 20.9658C8.67497 27.6558 0.614971 39.0258 1.01497 51.6558C1.64497 71.2458 22.415 86.4758 47.395 85.6658C72.375 84.8559 92.115 68.3258 91.485 48.7258Z" fill="#F65A5A"/>
<path d="M18.2349 27.7352C18.2349 27.7352 28.5549 -7.99477 56.4849 9.22523C56.4849 9.22523 62.4449 12.6952 66.6649 22.9552" stroke="black" stroke-miterlimit="10" stroke-linecap="round"/>
<path d="M63.5149 16.8252C79.5449 21.8252 91.0149 33.9252 91.4749 48.4052C92.1049 67.9952 72.3749 84.5352 47.3949 85.3452C22.4149 86.1552 1.65494 70.9152 1.01494 51.3252C0.604943 38.6952 8.66494 27.3252 21.1449 20.6352" stroke="black" stroke-miterlimit="10"/>
<path d="M50.2048 50.3059C48.2448 48.8059 46.9448 46.1359 46.9448 43.0859C46.9448 38.3959 50.0348 34.5859 53.8448 34.5859C57.6548 34.5859 60.7448 38.3859 60.7448 43.0859C60.7448 45.9359 59.6048 48.4659 57.8548 50.0059" fill="white"/>
<path d="M50.2048 50.3059C48.2448 48.8059 46.9448 46.1359 46.9448 43.0859C46.9448 38.3959 50.0348 34.5859 53.8448 34.5859C57.6548 34.5859 60.7448 38.3859 60.7448 43.0859C60.7448 45.9359 59.6048 48.4659 57.8548 50.0059" stroke="black" stroke-miterlimit="10"/>
<path d="M32.355 50.3059C30.395 48.8059 29.095 46.1359 29.095 43.0859C29.095 38.3959 32.185 34.5859 35.995 34.5859C39.805 34.5859 42.895 38.3859 42.895 43.0859C42.895 45.9359 41.755 48.4659 40.005 50.0059" fill="white"/>
<path d="M32.355 50.3059C30.395 48.8059 29.095 46.1359 29.095 43.0859C29.095 38.3959 32.185 34.5859 35.995 34.5859C39.805 34.5859 42.895 38.3859 42.895 43.0859C42.895 45.9359 41.755 48.4659 40.005 50.0059" stroke="black" stroke-miterlimit="10"/>
<path d="M53.845 46.9054C55.7725 46.9054 57.335 44.8146 57.335 42.2354C57.335 39.6563 55.7725 37.5654 53.845 37.5654C51.9175 37.5654 50.355 39.6563 50.355 42.2354C50.355 44.8146 51.9175 46.9054 53.845 46.9054Z" fill="black"/>
<path d="M36.085 46.9054C38.0124 46.9054 39.575 44.8146 39.575 42.2354C39.575 39.6563 38.0124 37.5654 36.085 37.5654C34.1575 37.5654 32.595 39.6563 32.595 42.2354C32.595 44.8146 34.1575 46.9054 36.085 46.9054Z" fill="black"/>
<path d="M40.2049 10.5057C41.0949 9.33568 46.3349 2.83568 54.2949 1.00568C54.4449 0.965677 54.5749 1.14568 54.4849 1.27568C53.6449 2.50568 50.8949 6.66568 49.1249 11.1157C49.0149 11.4057 49.2549 11.7057 49.5549 11.6657C52.2549 11.2557 62.3049 10.0957 69.3949 14.3757C69.5449 14.4657 69.4749 14.7057 69.3049 14.6957C66.6949 14.6557 56.4849 14.6957 49.2449 17.3257C49.0849 17.3857 48.9749 17.5457 48.9749 17.7157L49.1749 30.9057C49.1749 31.0757 48.9649 31.1457 48.8649 31.0157L40.9049 20.4357C40.8149 20.3157 40.6849 20.2557 40.5349 20.2757C38.9949 20.4657 29.9049 21.7057 21.9349 25.1157C21.7649 25.1857 21.6149 24.9757 21.7449 24.8457C23.3949 23.1657 28.3349 18.5057 33.9049 16.5157C34.2549 16.3857 34.2649 15.8957 33.9149 15.7657C31.6649 14.9257 25.9449 13.0157 18.2049 12.0657C18.0249 12.0457 17.9849 11.8057 18.1449 11.7457C20.0849 10.9757 26.9949 8.81568 39.8149 10.6557C39.9749 10.6757 40.1149 10.6257 40.2049 10.5057Z" fill="#5DAA63" stroke="black" stroke-miterlimit="10"/>
<path d="M43.4152 16.7712C45.2221 16.3245 46.4945 15.1843 46.2572 14.2246C46.02 13.2649 44.3629 12.849 42.556 13.2957C40.7492 13.7424 39.4768 14.8825 39.714 15.8422C39.9513 16.8019 41.6084 17.2178 43.4152 16.7712Z" stroke="black" stroke-miterlimit="10"/>
<path d="M47.925 51.0962C47.925 51.0962 54.7651 47.8762 60.7351 51.0962H47.925Z" fill="#F65A5A"/>
<path d="M47.925 51.0962C47.925 51.0962 54.7651 47.8762 60.7351 51.0962" stroke="black" stroke-miterlimit="10" stroke-linecap="round"/>
<path d="M30.075 51.0962C30.075 51.0962 36.915 47.8762 42.885 51.0962H30.075Z" fill="#F65A5A"/>
<path d="M30.075 51.0962C30.075 51.0962 36.915 47.8762 42.885 51.0962" stroke="black" stroke-miterlimit="10" stroke-linecap="round"/>
<path d="M24.2349 91.1152C22.3549 92.4952 19.9949 93.2052 17.6749 93.0952C15.8949 93.0152 14.0449 92.4752 12.4249 93.6252C11.6149 94.2052 11.2649 95.3152 11.7549 96.1852C12.3849 97.3252 13.8749 97.2252 15.1049 97.1352C17.4649 96.9652 19.8649 97.2052 22.1449 97.8552C22.8149 98.0452 23.5049 98.2852 23.9749 98.7952C24.4549 99.3052 24.6349 100.145 24.2149 100.695C23.6849 101.395 22.4849 101.345 22.5149 102.695C22.5249 103.325 22.8449 103.925 23.3449 104.295C24.1549 104.885 25.2149 104.965 26.2249 105.005C37.2249 105.455 48.7349 104.195 58.8149 108.615C59.8249 109.055 60.8749 109.565 61.9749 109.525C63.0749 109.485 64.2549 108.645 64.2049 107.535C64.1749 106.905 63.7749 106.315 63.8249 105.675C63.8849 104.985 64.5149 104.445 65.1849 104.265C65.8549 104.085 66.5649 104.175 67.2549 104.275C70.9049 104.795 74.5549 105.315 78.2049 105.835C80.6349 106.185 83.2549 106.495 85.3749 105.125C86.5549 104.355 87.3349 103.045 87.2549 101.635C87.1449 99.6452 85.6249 99.1452 84.4349 98.2952C83.6649 97.7552 82.9649 96.8952 83.1149 95.9652C83.2349 95.2352 84.1749 94.7752 84.7749 95.0152C85.1749 95.1852 85.6049 94.8052 85.5749 94.3652C85.5449 93.8852 85.2849 93.3852 84.8949 93.0852C84.1849 92.5552 83.2349 92.4952 82.3449 92.4752C79.0249 92.3652 75.7049 92.2552 72.3949 92.1452" stroke="#231F20" stroke-miterlimit="10" stroke-linecap="round"/>
<path d="M72.525 93.5958V69.7558C72.525 64.0758 61.685 59.4658 48.315 59.4658C34.945 59.4658 24.105 64.0758 24.105 69.7558V93.5958" fill="#FFD563"/>
<path d="M72.525 93.5958V69.7558C72.525 64.0758 61.685 59.4658 48.315 59.4658C34.945 59.4658 24.105 64.0758 24.105 69.7558V93.5958" stroke="#231F20" stroke-miterlimit="10" stroke-linecap="round"/>
<path d="M30.075 71.4854V86.7654" stroke="#231F20" stroke-miterlimit="10" stroke-linecap="round"/>
<path d="M65.595 71.4854V82.0554" stroke="#231F20" stroke-miterlimit="10" stroke-linecap="round"/>
<path d="M39.575 80.6152V89.7652" stroke="#231F20" stroke-miterlimit="10" stroke-linecap="round"/>
<path d="M60.095 73.8457V91.9357" stroke="#231F20" stroke-miterlimit="10" stroke-linecap="round"/>
</svg>
