<svg width="144" height="122" viewBox="0 0 144 122" fill="none" xmlns="http://www.w3.org/2000/svg">
<path d="M142.754 48.28C142.284 33.8 130.824 21.71 114.794 16.7H114.784C111.254 11.15 107.764 9.10004 107.764 9.10004C88.1045 -3.01996 77.1745 11.08 72.4145 20.51C59.9445 27.21 51.8745 38.57 52.2845 51.2C52.9145 70.79 73.6845 86.02 98.6645 85.21C123.644 84.41 143.384 67.87 142.754 48.28Z" fill="#F65A5A"/>
<path d="M69.5044 27.2899C69.5044 27.2899 79.8244 -8.44008 107.754 8.77992C107.754 8.77992 113.714 12.2499 117.934 22.5099" stroke="black" stroke-miterlimit="10" stroke-linecap="round"/>
<path d="M114.784 16.3701C130.814 21.3701 142.284 33.4701 142.744 47.9501C143.374 67.5401 123.644 84.0801 98.6645 84.8901C73.6845 85.7001 52.9145 70.4701 52.2845 50.8801C51.8745 38.2501 59.9345 26.8801 72.4145 20.1901" stroke="black" stroke-miterlimit="10"/>
<path d="M101.474 49.8607C99.5143 48.3607 98.2144 45.6906 98.2144 42.6406C98.2144 37.9506 101.304 34.1406 105.114 34.1406C108.924 34.1406 112.014 37.9406 112.014 42.6406C112.014 45.4906 110.874 48.0207 109.124 49.5607" fill="white"/>
<path d="M101.474 49.8607C99.5143 48.3607 98.2144 45.6906 98.2144 42.6406C98.2144 37.9506 101.304 34.1406 105.114 34.1406C108.924 34.1406 112.014 37.9406 112.014 42.6406C112.014 45.4906 110.874 48.0207 109.124 49.5607" stroke="black" stroke-miterlimit="10"/>
<path d="M83.6145 49.8607C81.6545 48.3607 80.3545 45.6906 80.3545 42.6406C80.3545 37.9506 83.4445 34.1406 87.2545 34.1406C91.0645 34.1406 94.1545 37.9406 94.1545 42.6406C94.1545 45.4906 93.0145 48.0207 91.2645 49.5607" fill="white"/>
<path d="M83.6145 49.8607C81.6545 48.3607 80.3545 45.6906 80.3545 42.6406C80.3545 37.9506 83.4445 34.1406 87.2545 34.1406C91.0645 34.1406 94.1545 37.9406 94.1545 42.6406C94.1545 45.4906 93.0145 48.0207 91.2645 49.5607" stroke="black" stroke-miterlimit="10"/>
<path d="M105.104 46.4601C107.032 46.4601 108.595 44.3693 108.595 41.7901C108.595 39.2109 107.032 37.1201 105.104 37.1201C103.177 37.1201 101.615 39.2109 101.615 41.7901C101.615 44.3693 103.177 46.4601 105.104 46.4601Z" fill="black"/>
<path d="M87.3545 46.4601C89.282 46.4601 90.8445 44.3693 90.8445 41.7901C90.8445 39.2109 89.282 37.1201 87.3545 37.1201C85.427 37.1201 83.8645 39.2109 83.8645 41.7901C83.8645 44.3693 85.427 46.4601 87.3545 46.4601Z" fill="black"/>
<path d="M91.4644 10.0604C92.3544 8.89036 97.5944 2.39037 105.554 0.560365C105.704 0.520365 105.834 0.700324 105.744 0.830324C104.904 2.06032 102.154 6.22035 100.384 10.6704C100.274 10.9604 100.514 11.2603 100.814 11.2203C103.514 10.8103 113.564 9.65036 120.654 13.9304C120.804 14.0204 120.734 14.2604 120.564 14.2504C117.954 14.2104 107.744 14.2504 100.504 16.8804C100.344 16.9404 100.234 17.1003 100.234 17.2703L100.434 30.4603C100.434 30.6303 100.224 30.7004 100.124 30.5704L92.1644 19.9904C92.0744 19.8704 91.9444 19.8103 91.7944 19.8303C90.2544 20.0203 81.1644 21.2604 73.1944 24.6704C73.0244 24.7404 72.8744 24.5303 73.0044 24.4003C74.6544 22.7203 79.5944 18.0604 85.1644 16.0704C85.5144 15.9404 85.5244 15.4504 85.1744 15.3204C82.9244 14.4804 77.2044 12.5704 69.4644 11.6204C69.2844 11.6004 69.2444 11.3604 69.4044 11.3004C71.3444 10.5304 78.2544 8.37033 91.0744 10.2103C91.2344 10.2203 91.3844 10.1704 91.4644 10.0604Z" fill="#5DAA63" stroke="black" stroke-miterlimit="10"/>
<path d="M94.7162 16.3141C96.5231 15.8675 97.7955 14.7273 97.5583 13.7676C97.321 12.8078 95.6639 12.392 93.857 12.8387C92.0502 13.2854 90.7778 14.4254 91.015 15.3852C91.2523 16.3449 92.9094 16.7608 94.7162 16.3141Z" stroke="black" stroke-miterlimit="10"/>
<path d="M106.864 101.22C105.674 99.6404 103.374 99.5404 101.394 99.5904C95.5144 99.7304 88.5644 99.8704 82.5744 100.01C80.5444 94.7404 80.1244 88.8405 81.4744 83.3505C83.0544 76.8805 87.0644 71.0304 92.5244 67.2104L97.2044 62.8005L91.2244 59.9504C76.7944 54.5304 59.7944 56.5304 47.0044 65.1404C35.7644 72.7104 28.0344 85.2205 26.0544 98.6005L26.0044 98.6105C23.3444 101.39 19.7244 101.52 15.8844 101.65C12.0344 101.79 8.02443 101.59 4.52443 103.21C2.61443 104.09 0.764408 106.23 1.72441 108.11C2.50441 109.64 4.56441 109.84 6.28441 109.84C8.90441 109.85 11.5144 109.86 14.1344 109.86C15.6644 109.86 17.2844 109.9 18.5644 110.73C19.8444 111.56 20.5144 113.51 19.4944 114.65C18.9244 115.28 18.0144 115.5 17.4244 116.11C16.4144 117.16 16.7944 119.04 17.9144 119.99C19.0244 120.94 20.5944 121.14 22.0544 121.05C30.1744 120.58 36.9444 112.88 45.0344 113.74C48.8344 114.14 52.1244 116.39 55.4944 118.18C58.8644 119.97 62.8844 121.37 66.4344 119.97C69.3944 118.8 71.4944 115.85 74.5944 115.12C77.3444 114.46 80.1444 115.71 82.8444 116.57C85.5444 117.43 88.8644 117.78 90.8744 115.79C91.9644 114.71 92.4244 113.15 93.4144 111.98C94.8344 110.29 97.1244 109.63 99.2844 109.19C101.444 108.74 103.734 108.37 105.484 107.03C107.234 105.68 108.194 102.98 106.864 101.22Z" fill="#FFD563"/>
<path d="M26.0144 98.6006C23.3544 101.381 19.7344 101.511 15.8944 101.641C12.0444 101.781 8.03441 101.581 4.53441 103.201C2.62441 104.081 0.77442 106.221 1.73442 108.101C2.51442 109.631 4.57442 109.831 6.29442 109.831C8.91442 109.841 11.5244 109.851 14.1444 109.851C15.6744 109.851 17.2944 109.891 18.5744 110.721C19.8544 111.551 20.5244 113.501 19.5044 114.641C18.9344 115.271 18.0244 115.491 17.4344 116.101C16.4244 117.151 16.8044 119.031 17.9244 119.981C19.0444 120.931 20.6044 121.131 22.0644 121.041C30.1844 120.571 36.9544 112.871 45.0444 113.731C48.8444 114.131 52.1344 116.381 55.5044 118.171C58.8744 119.961 62.8944 121.361 66.4444 119.961C69.4044 118.791 71.5044 115.841 74.6044 115.111C77.3544 114.451 80.1544 115.701 82.8544 116.561C85.5544 117.421 88.8744 117.771 90.8844 115.781C91.9744 114.701 92.4344 113.141 93.4244 111.971C94.8444 110.281 97.1344 109.621 99.2944 109.181C101.454 108.731 103.744 108.361 105.494 107.021C107.254 105.681 108.204 102.981 106.874 101.211C105.684 99.6306 103.384 99.5306 101.404 99.5806C95.1944 99.7306 88.9744 99.8806 82.7644 100.021" stroke="#231F20" stroke-miterlimit="10"/>
<path d="M77.5344 79.3203C74.1244 84.0003 72.9244 90.4903 74.7144 96.0303" stroke="#231F20" stroke-miterlimit="10" stroke-linecap="round"/>
<path d="M56.9443 69.3809C48.8943 72.7809 42.4943 79.8908 40.0143 88.2708C39.8643 88.7908 40.0343 89.3808 40.4943 89.6708C41.0643 90.0208 41.6143 89.6408 42.0643 89.2808L48.0543 84.5009C48.3543 84.2609 48.7843 84.5108 48.7343 84.8908L48.3543 87.4108" stroke="#231F20" stroke-miterlimit="10" stroke-linecap="round"/>
<path d="M91.2245 59.9407C76.7945 54.5207 59.7945 56.5207 47.0045 65.1307C34.2145 73.7407 25.9745 88.7406 25.5745 104.161" stroke="#231F20" stroke-miterlimit="10" stroke-linecap="round"/>
<path d="M92.5244 67.2002C87.0644 71.0202 83.0644 76.8702 81.4744 83.3402C79.8944 89.8102 80.7344 96.8502 83.8144 102.76" stroke="#231F20" stroke-miterlimit="10" stroke-linecap="round"/>
<path d="M97.7545 56.8307C95.9245 56.0007 94.0645 55.1607 92.0745 54.9307C90.0145 54.7007 87.7645 55.2207 86.4145 56.8007C86.0145 57.2807 85.7145 57.8507 85.6645 58.4707C85.5545 59.7807 86.5345 60.4007 87.4545 60.9007C89.4345 61.9607 91.5345 62.8207 93.6945 63.4507C93.9145 63.5107 93.9245 63.8207 93.7045 63.8907C91.5445 64.5707 89.6245 66.0207 88.4045 67.9407C88.0345 68.5207 87.8645 69.2107 87.9845 69.8907C88.3045 71.6307 90.1345 71.9207 91.6345 71.7907C94.3945 71.5507 97.0745 70.4307 99.2045 68.6507" fill="#F65A5A"/>
<path d="M97.7545 56.8307C95.9245 56.0007 94.0645 55.1607 92.0745 54.9307C90.0145 54.7007 87.7645 55.2207 86.4145 56.8007C86.0145 57.2807 85.7145 57.8507 85.6645 58.4707C85.5545 59.7807 86.5345 60.4007 87.4545 60.9007C89.4345 61.9607 91.5345 62.8207 93.6945 63.4507C93.9145 63.5107 93.9245 63.8207 93.7045 63.8907C91.5445 64.5707 89.6245 66.0207 88.4045 67.9407C88.0345 68.5207 87.8645 69.2107 87.9845 69.8907C88.3045 71.6307 90.1345 71.9207 91.6345 71.7907C94.3945 71.5507 97.0745 70.4307 99.2045 68.6507" stroke="black" stroke-miterlimit="10" stroke-linecap="round"/>
<path d="M99.1943 50.6499C99.1943 50.6499 106.034 47.4299 112.004 50.6499H99.1943Z" fill="#F65A5A"/>
<path d="M99.1943 50.6499C99.1943 50.6499 106.034 47.4299 112.004 50.6499" stroke="black" stroke-miterlimit="10" stroke-linecap="round"/>
<path d="M81.3445 50.6499C81.3445 50.6499 88.1845 47.4299 94.1545 50.6499H81.3445Z" fill="#F65A5A"/>
<path d="M81.3445 50.6499C81.3445 50.6499 88.1845 47.4299 94.1545 50.6499" stroke="black" stroke-miterlimit="10" stroke-linecap="round"/>
</svg>
