<svg width="143" height="123" viewBox="0 0 143 123" fill="none" xmlns="http://www.w3.org/2000/svg">
<path d="M142.292 48.7258C141.822 34.2458 130.362 22.1558 114.332 17.1458H114.322C110.792 11.5958 107.302 9.54584 107.302 9.54584C87.6416 -2.57416 76.7116 11.5258 71.9516 20.9558C59.4816 27.6558 51.4116 39.0158 51.8216 51.6458C52.4516 71.2358 73.2216 86.4658 98.2016 85.6558C123.182 84.8558 142.922 68.3158 142.292 48.7258Z" fill="#EFDAD6"/>
<path d="M69.042 27.7357C69.042 27.7357 79.362 -7.99428 107.292 9.22572C107.292 9.22572 113.252 12.6957 117.472 22.9557" stroke="black" stroke-miterlimit="10" stroke-linecap="round"/>
<path d="M114.322 16.8154C130.352 21.8154 141.822 33.9154 142.282 48.3954C142.912 67.9854 123.182 84.5254 98.2016 85.3354C73.2216 86.1454 52.4516 70.9154 51.8216 51.3254C51.4116 38.6954 59.4716 27.3254 71.9516 20.6354" stroke="black" stroke-miterlimit="10"/>
<path d="M101.012 50.3055C99.0519 48.8055 97.752 46.1354 97.752 43.0854C97.752 38.3954 100.842 34.5854 104.652 34.5854C108.462 34.5854 111.552 38.3854 111.552 43.0854C111.552 45.9354 110.412 48.4655 108.662 50.0055" fill="white"/>
<path d="M101.012 50.3055C99.0519 48.8055 97.752 46.1354 97.752 43.0854C97.752 38.3954 100.842 34.5854 104.652 34.5854C108.462 34.5854 111.552 38.3854 111.552 43.0854C111.552 45.9354 110.412 48.4655 108.662 50.0055" stroke="black" stroke-miterlimit="10"/>
<path d="M83.1516 50.3055C81.1916 48.8055 79.8916 46.1354 79.8916 43.0854C79.8916 38.3954 82.9816 34.5854 86.7916 34.5854C90.6016 34.5854 93.6916 38.3854 93.6916 43.0854C93.6916 45.9354 92.5516 48.4655 90.8016 50.0055" fill="white"/>
<path d="M83.1516 50.3055C81.1916 48.8055 79.8916 46.1354 79.8916 43.0854C79.8916 38.3954 82.9816 34.5854 86.7916 34.5854C90.6016 34.5854 93.6916 38.3854 93.6916 43.0854C93.6916 45.9354 92.5516 48.4655 90.8016 50.0055" stroke="black" stroke-miterlimit="10"/>
<path d="M104.642 46.9054C106.569 46.9054 108.132 44.8146 108.132 42.2354C108.132 39.6562 106.569 37.5654 104.642 37.5654C102.714 37.5654 101.152 39.6562 101.152 42.2354C101.152 44.8146 102.714 46.9054 104.642 46.9054Z" fill="black"/>
<path d="M86.8918 46.9054C88.8193 46.9054 90.3819 44.8146 90.3819 42.2354C90.3819 39.6562 88.8193 37.5654 86.8918 37.5654C84.9644 37.5654 83.4019 39.6562 83.4019 42.2354C83.4019 44.8146 84.9644 46.9054 86.8918 46.9054Z" fill="black"/>
<path d="M91.002 10.5057C91.892 9.33568 97.132 2.83568 105.092 1.00568C105.242 0.965678 105.372 1.14564 105.282 1.27564C104.442 2.50564 101.692 6.66566 99.922 11.1157C99.812 11.4057 100.052 11.7057 100.352 11.6657C103.052 11.2557 113.102 10.0957 120.192 14.3757C120.342 14.4657 120.272 14.7057 120.102 14.6957C117.492 14.6557 107.282 14.6957 100.042 17.3257C99.882 17.3857 99.772 17.5456 99.772 17.7156L99.972 30.9056C99.972 31.0756 99.762 31.1457 99.662 31.0157L91.702 20.4357C91.612 20.3157 91.482 20.2556 91.332 20.2756C89.792 20.4656 80.702 21.7057 72.732 25.1157C72.562 25.1857 72.412 24.9756 72.542 24.8456C74.192 23.1656 79.132 18.5057 84.702 16.5157C85.052 16.3857 85.062 15.8957 84.712 15.7657C82.462 14.9257 76.742 13.0157 69.002 12.0657C68.822 12.0457 68.782 11.8057 68.942 11.7457C70.882 10.9757 77.792 8.81564 90.612 10.6556C90.772 10.6656 90.922 10.6157 91.002 10.5057Z" fill="#D2BAB6" stroke="black" stroke-miterlimit="10"/>
<path d="M94.2538 16.7599C96.0607 16.3133 97.3331 15.1731 97.0959 14.2134C96.8586 13.2536 95.2015 12.8378 93.3946 13.2845C91.5878 13.7312 90.3154 14.8712 90.5526 15.831C90.7899 16.7907 92.447 17.2066 94.2538 16.7599Z" stroke="black" stroke-miterlimit="10"/>
<path d="M106.402 101.665C105.212 100.085 102.912 99.9853 100.932 100.035C95.0518 100.175 88.1018 100.315 82.1118 100.455C80.0818 95.1853 79.6618 89.2853 81.0118 83.7953C82.5918 77.3253 86.6018 71.4753 92.0618 67.6553L96.7418 63.2453L90.7618 60.3953C76.3318 54.9753 59.3318 56.9753 46.5418 65.5853C35.3018 73.1553 27.5718 85.6653 25.5918 99.0453L25.5418 99.0553C22.8818 101.835 19.2618 101.965 15.4218 102.095C11.5718 102.235 7.56178 102.035 4.06178 103.655C2.15178 104.535 0.301761 106.675 1.26176 108.555C2.04176 110.085 4.10176 110.285 5.82176 110.285C8.44176 110.295 11.0518 110.305 13.6718 110.305C15.2018 110.305 16.8218 110.345 18.1018 111.175C19.3818 112.005 20.0518 113.955 19.0318 115.095C18.4618 115.725 17.5518 115.945 16.9618 116.555C15.9518 117.605 16.3318 119.485 17.4518 120.435C18.5618 121.385 20.1318 121.585 21.5918 121.495C29.7118 121.025 36.4818 113.325 44.5718 114.185C48.3718 114.585 51.6618 116.835 55.0318 118.625C58.4018 120.415 62.4218 121.815 65.9718 120.415C68.9318 119.245 71.0318 116.295 74.1318 115.565C76.8818 114.905 79.6818 116.155 82.3818 117.015C85.0818 117.875 88.4018 118.225 90.4118 116.235C91.5018 115.155 91.9618 113.595 92.9518 112.425C94.3718 110.735 96.6618 110.075 98.8218 109.635C100.982 109.185 103.272 108.815 105.022 107.475C106.772 106.125 107.732 103.425 106.402 101.665Z" fill="#FFD563"/>
<path d="M25.5515 99.0454C22.8915 101.825 19.2715 101.955 15.4315 102.085C11.5815 102.225 7.57152 102.025 4.07152 103.645C2.16152 104.525 0.31153 106.665 1.27153 108.545C2.05153 110.075 4.11153 110.275 5.83153 110.275C8.45153 110.285 11.0615 110.295 13.6815 110.295C15.2115 110.295 16.8315 110.335 18.1115 111.165C19.3915 111.995 20.0615 113.945 19.0415 115.085C18.4715 115.715 17.5615 115.935 16.9715 116.545C15.9615 117.595 16.3415 119.475 17.4615 120.425C18.5815 121.375 20.1415 121.575 21.6015 121.485C29.7215 121.015 36.4915 113.315 44.5815 114.175C48.3815 114.575 51.6715 116.825 55.0415 118.615C58.4115 120.405 62.4315 121.805 65.9815 120.405C68.9415 119.235 71.0415 116.285 74.1415 115.555C76.8915 114.895 79.6915 116.145 82.3915 117.005C85.0915 117.865 88.4115 118.215 90.4215 116.225C91.5115 115.145 91.9715 113.585 92.9615 112.415C94.3815 110.725 96.6715 110.065 98.8315 109.625C100.992 109.175 103.282 108.805 105.032 107.465C106.792 106.125 107.742 103.425 106.412 101.655C105.222 100.075 102.922 99.9754 100.942 100.025C94.7315 100.175 88.5115 100.325 82.3015 100.465" stroke="#231F20" stroke-miterlimit="10"/>
<path d="M77.0717 79.7656C73.6617 84.4456 72.4617 90.9356 74.2517 96.4756" stroke="#231F20" stroke-miterlimit="10" stroke-linecap="round"/>
<path d="M56.4817 69.8257C48.4317 73.2257 42.0317 80.3356 39.5517 88.7156C39.4017 89.2356 39.5717 89.8257 40.0317 90.1157C40.6017 90.4657 41.1516 90.0856 41.6016 89.7256L47.5917 84.9457C47.8917 84.7057 48.3217 84.9556 48.2717 85.3356L47.8917 87.8557" stroke="#231F20" stroke-miterlimit="10" stroke-linecap="round"/>
<path d="M90.7618 60.3855C76.3318 54.9655 59.3318 56.9655 46.5418 65.5755C33.7518 74.1855 25.5118 89.1855 25.1118 104.605" stroke="#231F20" stroke-miterlimit="10" stroke-linecap="round"/>
<path d="M92.0615 67.6455C86.6015 71.4655 82.6015 77.3155 81.0115 83.7855C79.4315 90.2555 80.2715 97.2955 83.3515 103.206" stroke="#231F20" stroke-miterlimit="10" stroke-linecap="round"/>
<path d="M97.2918 57.2755C95.4618 56.4455 93.6018 55.6056 91.6118 55.3756C89.5518 55.1456 87.3018 55.6656 85.9518 57.2456C85.5518 57.7256 85.2518 58.2955 85.2018 58.9155C85.0918 60.2255 86.0718 60.8455 86.9918 61.3455C88.9718 62.4055 91.0718 63.2655 93.2318 63.8955C93.4518 63.9555 93.4618 64.2655 93.2418 64.3355C91.0818 65.0155 89.1619 66.4656 87.9419 68.3856C87.5719 68.9656 87.4018 69.6555 87.5218 70.3355C87.8418 72.0755 89.6718 72.3655 91.1718 72.2355C93.9318 71.9955 96.6118 70.8755 98.7418 69.0955" fill="#EFDAD6"/>
<path d="M97.2918 57.2755C95.4618 56.4455 93.6018 55.6056 91.6118 55.3756C89.5518 55.1456 87.3018 55.6656 85.9518 57.2456C85.5518 57.7256 85.2518 58.2955 85.2018 58.9155C85.0918 60.2255 86.0718 60.8455 86.9918 61.3455C88.9718 62.4055 91.0718 63.2655 93.2318 63.8955C93.4518 63.9555 93.4618 64.2655 93.2418 64.3355C91.0818 65.0155 89.1619 66.4656 87.9419 68.3856C87.5719 68.9656 87.4018 69.6555 87.5218 70.3355C87.8418 72.0755 89.6718 72.3655 91.1718 72.2355C93.9318 71.9955 96.6118 70.8755 98.7418 69.0955" stroke="black" stroke-miterlimit="10" stroke-linecap="round"/>
<path d="M98.7319 51.0957C98.7319 51.0957 105.572 47.8757 111.542 51.0957H98.7319Z" fill="#EFDAD6"/>
<path d="M98.7319 51.0957C98.7319 51.0957 105.572 47.8757 111.542 51.0957" stroke="black" stroke-miterlimit="10" stroke-linecap="round"/>
<path d="M80.8818 51.0957C80.8818 51.0957 87.7218 47.8757 93.6918 51.0957H80.8818Z" fill="#EFDAD6"/>
<path d="M80.8818 51.0957C80.8818 51.0957 87.7218 47.8757 93.6918 51.0957" stroke="black" stroke-miterlimit="10" stroke-linecap="round"/>
</svg>
